<svg width="100" height="27" viewBox="0 0 100 27" fill="none" xmlns="http://www.w3.org/2000/svg">
<path d="M30.6016 24.7148L31.8086 19.0039H32.7344L31.6914 23.918H33.8086L33.6406 24.7148H30.6016ZM36.332 24.793C36.0013 24.793 35.7122 24.7305 35.4648 24.6055C35.2201 24.4779 35.0299 24.2917 34.8945 24.0469C34.7617 23.7995 34.6953 23.4974 34.6953 23.1406C34.6953 22.7865 34.7461 22.4414 34.8477 22.1055C34.9492 21.7669 35.099 21.4622 35.2969 21.1914C35.4948 20.9206 35.7357 20.7057 36.0195 20.5469C36.3034 20.388 36.6263 20.3086 36.9883 20.3086C37.431 20.3086 37.763 20.4089 37.9844 20.6094C38.2083 20.8073 38.3203 21.0703 38.3203 21.3984C38.3203 21.6224 38.2695 21.8268 38.168 22.0117C38.0664 22.1966 37.9115 22.3568 37.7031 22.4922C37.4974 22.625 37.2357 22.7279 36.918 22.8008C36.6029 22.8737 36.2318 22.9102 35.8047 22.9102H35.6289C35.6263 22.9492 35.6237 22.9896 35.6211 23.0312C35.6185 23.0703 35.6172 23.1094 35.6172 23.1484C35.6172 23.4375 35.6927 23.6654 35.8438 23.832C35.9948 23.9961 36.2148 24.0781 36.5039 24.0781C36.7227 24.0781 36.9245 24.0508 37.1094 23.9961C37.2943 23.9414 37.5013 23.8594 37.7305 23.75V24.4727C37.5195 24.5742 37.306 24.6536 37.0898 24.7109C36.8737 24.7656 36.6211 24.793 36.332 24.793ZM35.7422 22.2461H35.875C36.1927 22.2461 36.4688 22.2161 36.7031 22.1562C36.9375 22.0938 37.1185 22.0026 37.2461 21.8828C37.3737 21.7604 37.4375 21.612 37.4375 21.4375C37.4375 21.3021 37.3945 21.1966 37.3086 21.1211C37.2253 21.043 37.1003 21.0039 36.9336 21.0039C36.7695 21.0039 36.6081 21.0547 36.4492 21.1562C36.2904 21.2552 36.1484 21.3984 36.0234 21.5859C35.8984 21.7708 35.8047 21.9909 35.7422 22.2461ZM40.0703 24.793C39.7552 24.793 39.4987 24.7227 39.3008 24.582C39.1055 24.4388 39.0078 24.1888 39.0078 23.832C39.0078 23.7617 39.0117 23.6849 39.0195 23.6016C39.0299 23.5156 39.0443 23.4271 39.0625 23.3359L39.5391 21.0859H38.9141L39 20.6484L39.7383 20.3477L40.2305 19.4336H40.8047L40.6016 20.3906H41.7031L41.5547 21.0859H40.457L39.9766 23.3398C39.9635 23.3945 39.9518 23.4531 39.9414 23.5156C39.9336 23.5755 39.9297 23.6302 39.9297 23.6797C39.9297 23.7969 39.9622 23.888 40.0273 23.9531C40.0924 24.0182 40.1914 24.0508 40.3242 24.0508C40.4258 24.0508 40.5234 24.0404 40.6172 24.0195C40.7109 23.9987 40.8138 23.9688 40.9258 23.9297V24.6211C40.8294 24.6654 40.7044 24.7044 40.5508 24.7383C40.3971 24.7747 40.237 24.793 40.0703 24.793ZM41.957 20.9609C42.0508 20.75 42.1445 20.5286 42.2383 20.2969C42.3346 20.0651 42.4258 19.8372 42.5117 19.6133C42.6003 19.3893 42.6758 19.1862 42.7383 19.0039H43.6445L43.6758 19.0898C43.5924 19.2773 43.4948 19.4792 43.3828 19.6953C43.2708 19.9089 43.151 20.125 43.0234 20.3438C42.8984 20.5599 42.7721 20.7656 42.6445 20.9609H41.957ZM44.3633 24.793C44.0924 24.793 43.8555 24.7695 43.6523 24.7227C43.4518 24.6784 43.2708 24.6133 43.1094 24.5273V23.7422C43.276 23.8411 43.4635 23.9245 43.6719 23.9922C43.8828 24.0573 44.099 24.0898 44.3203 24.0898C44.4922 24.0898 44.6419 24.0664 44.7695 24.0195C44.8971 23.9727 44.9961 23.9062 45.0664 23.8203C45.1393 23.7318 45.1758 23.625 45.1758 23.5C45.1758 23.4089 45.1549 23.3281 45.1133 23.2578C45.0716 23.1875 45 23.1159 44.8984 23.043C44.7969 22.9701 44.6562 22.8828 44.4766 22.7812C44.2865 22.6745 44.125 22.5664 43.9922 22.457C43.862 22.3451 43.7617 22.2214 43.6914 22.0859C43.6237 21.9505 43.5898 21.7917 43.5898 21.6094C43.5898 21.3359 43.6523 21.1029 43.7773 20.9102C43.9049 20.7148 44.0846 20.5664 44.3164 20.4648C44.5508 20.3607 44.8268 20.3086 45.1445 20.3086C45.3997 20.3086 45.6406 20.3385 45.8672 20.3984C46.0938 20.4557 46.3034 20.5365 46.4961 20.6406L46.1953 21.3203C46.0521 21.2396 45.8932 21.1706 45.7188 21.1133C45.5443 21.0534 45.3568 21.0234 45.1562 21.0234C44.9714 21.0234 44.8164 21.0664 44.6914 21.1523C44.569 21.2383 44.5078 21.3607 44.5078 21.5195C44.5078 21.6029 44.5273 21.6784 44.5664 21.7461C44.6081 21.8112 44.6771 21.8776 44.7734 21.9453C44.8698 22.013 45.0013 22.0911 45.168 22.1797C45.3477 22.2786 45.5078 22.3828 45.6484 22.4922C45.7891 22.6016 45.8997 22.7279 45.9805 22.8711C46.0612 23.0117 46.1016 23.1823 46.1016 23.3828C46.1016 23.6875 46.0299 23.9453 45.8867 24.1562C45.7461 24.3646 45.5456 24.5234 45.2852 24.6328C45.0247 24.7396 44.7174 24.793 44.3633 24.793ZM48.918 24.7148L50.2109 18.6367H51.1211L49.832 24.7148H48.918ZM52.9492 24.793C52.6185 24.793 52.3294 24.7305 52.082 24.6055C51.8372 24.4779 51.6471 24.2917 51.5117 24.0469C51.3789 23.7995 51.3125 23.4974 51.3125 23.1406C51.3125 22.7865 51.3633 22.4414 51.4648 22.1055C51.5664 21.7669 51.7161 21.4622 51.9141 21.1914C52.112 20.9206 52.3529 20.7057 52.6367 20.5469C52.9206 20.388 53.2435 20.3086 53.6055 20.3086C54.0482 20.3086 54.3802 20.4089 54.6016 20.6094C54.8255 20.8073 54.9375 21.0703 54.9375 21.3984C54.9375 21.6224 54.8867 21.8268 54.7852 22.0117C54.6836 22.1966 54.5286 22.3568 54.3203 22.4922C54.1146 22.625 53.8529 22.7279 53.5352 22.8008C53.2201 22.8737 52.849 22.9102 52.4219 22.9102H52.2461C52.2435 22.9492 52.2409 22.9896 52.2383 23.0312C52.2357 23.0703 52.2344 23.1094 52.2344 23.1484C52.2344 23.4375 52.3099 23.6654 52.4609 23.832C52.612 23.9961 52.832 24.0781 53.1211 24.0781C53.3398 24.0781 53.5417 24.0508 53.7266 23.9961C53.9115 23.9414 54.1185 23.8594 54.3477 23.75V24.4727C54.1367 24.5742 53.9232 24.6536 53.707 24.7109C53.4909 24.7656 53.2383 24.793 52.9492 24.793ZM52.3594 22.2461H52.4922C52.8099 22.2461 53.0859 22.2161 53.3203 22.1562C53.5547 22.0938 53.7357 22.0026 53.8633 21.8828C53.9909 21.7604 54.0547 21.612 54.0547 21.4375C54.0547 21.3021 54.0117 21.1966 53.9258 21.1211C53.8424 21.043 53.7174 21.0039 53.5508 21.0039C53.3867 21.0039 53.2253 21.0547 53.0664 21.1562C52.9076 21.2552 52.7656 21.3984 52.6406 21.5859C52.5156 21.7708 52.4219 21.9909 52.3594 22.2461ZM56.7305 24.793C56.5091 24.793 56.3073 24.7396 56.125 24.6328C55.9453 24.5234 55.8021 24.3568 55.6953 24.1328C55.5885 23.9062 55.5352 23.6185 55.5352 23.2695C55.5352 22.9674 55.5664 22.6732 55.6289 22.3867C55.694 22.1003 55.7852 21.832 55.9023 21.582C56.0221 21.332 56.1667 21.112 56.3359 20.9219C56.5052 20.7292 56.6966 20.5794 56.9102 20.4727C57.1237 20.3633 57.3542 20.3086 57.6016 20.3086C57.7891 20.3086 57.9531 20.3411 58.0938 20.4062C58.2344 20.4688 58.3529 20.5534 58.4492 20.6602C58.5456 20.7669 58.6237 20.8854 58.6836 21.0156H58.7188L58.9531 20.3906H59.6562L58.7383 24.7148H58.0391L58.125 24.0156H58.0938C57.9818 24.1589 57.8568 24.2891 57.7188 24.4062C57.5833 24.5234 57.4336 24.6172 57.2695 24.6875C57.1055 24.7578 56.9258 24.793 56.7305 24.793ZM57.0664 24.0469C57.2487 24.0469 57.4232 23.9792 57.5898 23.8438C57.7565 23.7057 57.9036 23.5234 58.0312 23.2969C58.1615 23.0703 58.2578 22.8216 58.3203 22.5508C58.3516 22.4206 58.3724 22.2969 58.3828 22.1797C58.3958 22.0625 58.4023 21.9453 58.4023 21.8281C58.4023 21.6016 58.3424 21.4167 58.2227 21.2734C58.1029 21.1302 57.9388 21.0586 57.7305 21.0586C57.5872 21.0586 57.4505 21.099 57.3203 21.1797C57.1927 21.2604 57.0768 21.3724 56.9727 21.5156C56.8685 21.6562 56.7773 21.819 56.6992 22.0039C56.6237 22.1888 56.5651 22.388 56.5234 22.6016C56.4844 22.8125 56.4648 23.0273 56.4648 23.2461C56.4648 23.5091 56.5169 23.7083 56.6211 23.8438C56.7279 23.9792 56.8763 24.0469 57.0664 24.0469ZM59.9922 24.7148L60.9102 20.3906H61.625L61.5312 21.207H61.5742C61.6862 21.0404 61.8073 20.8893 61.9375 20.7539C62.0703 20.6185 62.2174 20.5104 62.3789 20.4297C62.5404 20.349 62.7201 20.3086 62.918 20.3086C62.9883 20.3086 63.0612 20.3138 63.1367 20.3242C63.2148 20.332 63.2826 20.3438 63.3398 20.3594L63.1406 21.2188C63.0833 21.2031 63.0208 21.1901 62.9531 21.1797C62.8854 21.1693 62.8138 21.1641 62.7383 21.1641C62.5664 21.1641 62.4049 21.2044 62.2539 21.2852C62.1029 21.3659 61.9661 21.4779 61.8438 21.6211C61.7214 21.7643 61.6159 21.9323 61.5273 22.125C61.4388 22.3151 61.3698 22.5221 61.3203 22.7461L60.9062 24.7148H59.9922ZM63.2422 24.7148L64.1641 20.3789H64.9023L64.8086 21.1953H64.832C64.9362 21.0417 65.0573 20.8971 65.1953 20.7617C65.3333 20.6237 65.4896 20.5117 65.6641 20.4258C65.8411 20.3398 66.0391 20.2969 66.2578 20.2969C66.4974 20.2969 66.7005 20.3438 66.8672 20.4375C67.0339 20.5312 67.1602 20.6654 67.2461 20.8398C67.332 21.0143 67.375 21.2227 67.375 21.4648C67.375 21.5716 67.3659 21.6862 67.3477 21.8086C67.332 21.9284 67.3112 22.0456 67.2852 22.1602L66.7422 24.7148H65.8086L66.3633 22.0859C66.3867 21.9844 66.4036 21.8932 66.4141 21.8125C66.4271 21.7318 66.4336 21.6562 66.4336 21.5859C66.4336 21.4141 66.3906 21.2852 66.3047 21.1992C66.2214 21.1133 66.0964 21.0703 65.9297 21.0703C65.7474 21.0703 65.5677 21.1406 65.3906 21.2812C65.2135 21.4219 65.0534 21.6263 64.9102 21.8945C64.7669 22.1628 64.6536 22.487 64.5703 22.8672L64.1797 24.7148H63.2422ZM70.1484 24.7148L71.3555 19.0039H74.3984L74.2305 19.793H72.1133L71.7852 21.3438H73.7656L73.6016 22.1289H71.6211L71.2383 23.9219H73.3555L73.1875 24.7148H70.1484ZM74.2812 24.7148L75.2031 20.3789H75.9414L75.8477 21.1953H75.8711C75.9753 21.0417 76.0964 20.8971 76.2344 20.7617C76.3724 20.6237 76.5286 20.5117 76.7031 20.4258C76.8802 20.3398 77.0781 20.2969 77.2969 20.2969C77.5365 20.2969 77.7396 20.3438 77.9062 20.4375C78.0729 20.5312 78.1992 20.6654 78.2852 20.8398C78.3711 21.0143 78.4141 21.2227 78.4141 21.4648C78.4141 21.5716 78.4049 21.6862 78.3867 21.8086C78.3711 21.9284 78.3503 22.0456 78.3242 22.1602L77.7812 24.7148H76.8477L77.4023 22.0859C77.4258 21.9844 77.4427 21.8932 77.4531 21.8125C77.4661 21.7318 77.4727 21.6562 77.4727 21.5859C77.4727 21.4141 77.4297 21.2852 77.3438 21.1992C77.2604 21.1133 77.1354 21.0703 76.9688 21.0703C76.7865 21.0703 76.6068 21.1406 76.4297 21.2812C76.2526 21.4219 76.0924 21.6263 75.9492 21.8945C75.806 22.1628 75.6927 22.487 75.6094 22.8672L75.2188 24.7148H74.2812ZM80.0938 26.6367C79.5703 26.6367 79.1615 26.5391 78.8672 26.3438C78.5755 26.151 78.4297 25.8815 78.4297 25.5352C78.4297 25.2643 78.5221 25.0299 78.707 24.832C78.8893 24.6341 79.1797 24.4688 79.5781 24.3359C79.4792 24.2812 79.4049 24.2122 79.3555 24.1289C79.306 24.0456 79.2812 23.9492 79.2812 23.8398C79.2812 23.6602 79.3424 23.5052 79.4648 23.375C79.5898 23.2422 79.7773 23.1172 80.0273 23C79.8581 22.8932 79.7279 22.7578 79.6367 22.5938C79.5456 22.4271 79.5 22.2318 79.5 22.0078C79.5026 21.7526 79.5443 21.5208 79.625 21.3125C79.7083 21.1042 79.8268 20.9258 79.9805 20.7773C80.1315 20.6289 80.3138 20.5143 80.5273 20.4336C80.7409 20.3529 80.9779 20.3125 81.2383 20.3125C81.3424 20.3125 81.4466 20.3203 81.5508 20.3359C81.6549 20.349 81.7578 20.3698 81.8594 20.3984H83.3516L83.2383 20.918L82.4727 21.043C82.5143 21.1159 82.5443 21.1992 82.5625 21.293C82.5833 21.3867 82.5938 21.4883 82.5938 21.5977C82.5938 21.8477 82.5521 22.0742 82.4688 22.2773C82.388 22.4779 82.2721 22.6497 82.1211 22.793C81.9753 22.9336 81.7969 23.0417 81.5859 23.1172C81.3776 23.1901 81.1432 23.2279 80.8828 23.2305C80.8099 23.2305 80.7435 23.2279 80.6836 23.2227C80.6237 23.2148 80.5703 23.2057 80.5234 23.1953C80.375 23.2448 80.2643 23.306 80.1914 23.3789C80.1185 23.4492 80.082 23.526 80.082 23.6094C80.082 23.6771 80.1029 23.7318 80.1445 23.7734C80.1836 23.8099 80.2383 23.8385 80.3086 23.8594C80.3789 23.8776 80.4661 23.8932 80.5703 23.9062L81.0703 23.9688C81.3672 24.0052 81.6094 24.0664 81.7969 24.1523C81.987 24.2383 82.1263 24.3542 82.2148 24.5C82.306 24.6432 82.3516 24.8216 82.3516 25.0352C82.3516 25.3164 82.2917 25.5612 82.1719 25.7695C82.0547 25.9779 81.8828 26.1497 81.6562 26.2852C81.4661 26.3997 81.2396 26.487 80.9766 26.5469C80.7135 26.6068 80.4193 26.6367 80.0938 26.6367ZM80.1406 26C80.3672 26 80.5664 25.9805 80.7383 25.9414C80.9128 25.9023 81.0573 25.8451 81.1719 25.7695C81.2812 25.6992 81.3646 25.6146 81.4219 25.5156C81.4792 25.4167 81.5078 25.3034 81.5078 25.1758C81.5078 25.1185 81.4987 25.0677 81.4805 25.0234C81.4648 24.9818 81.4401 24.944 81.4062 24.9102C81.3438 24.8477 81.2578 24.7995 81.1484 24.7656C81.0391 24.7318 80.9023 24.7057 80.7383 24.6875L80.1602 24.625C79.9596 24.6615 79.7904 24.7174 79.6523 24.793C79.5169 24.8685 79.4141 24.9596 79.3438 25.0664C79.276 25.1758 79.2422 25.2982 79.2422 25.4336C79.2422 25.6159 79.3177 25.7552 79.4688 25.8516C79.6198 25.9505 79.8438 26 80.1406 26ZM80.8984 22.6406C81.0755 22.6406 81.2279 22.5898 81.3555 22.4883C81.4831 22.3841 81.5807 22.2461 81.6484 22.0742C81.7188 21.8997 81.7539 21.7057 81.7539 21.4922C81.7539 21.3932 81.7409 21.3073 81.7148 21.2344C81.6914 21.1615 81.6549 21.1016 81.6055 21.0547C81.5612 21.0078 81.5052 20.9727 81.4375 20.9492C81.3724 20.9258 81.2969 20.9141 81.2109 20.9141C81.0781 20.9141 80.9583 20.944 80.8516 21.0039C80.7474 21.0612 80.6576 21.1419 80.582 21.2461C80.5091 21.3477 80.4518 21.4674 80.4102 21.6055C80.3711 21.7435 80.3516 21.8919 80.3516 22.0508C80.3516 22.1289 80.3594 22.1992 80.375 22.2617C80.3932 22.3242 80.4193 22.3789 80.4531 22.4258C80.5417 22.569 80.6901 22.6406 80.8984 22.6406ZM83.2617 24.7148L84.5547 18.6367H85.4648L84.1758 24.7148H83.2617ZM85.4688 24.7148L86.3867 20.3906H87.3008L86.3828 24.7148H85.4688ZM87.0469 19.7422C86.9115 19.7422 86.7982 19.7096 86.707 19.6445C86.6159 19.5768 86.5703 19.4714 86.5703 19.3281C86.5703 19.2083 86.5924 19.1042 86.6367 19.0156C86.6836 18.9271 86.75 18.8594 86.8359 18.8125C86.9245 18.763 87.0299 18.7383 87.1523 18.7383C87.2878 18.7383 87.3984 18.7708 87.4844 18.8359C87.5703 18.8984 87.6133 19 87.6133 19.1406C87.6133 19.3229 87.5625 19.4688 87.4609 19.5781C87.3594 19.6875 87.2214 19.7422 87.0469 19.7422ZM88.8086 24.793C88.5378 24.793 88.3008 24.7695 88.0977 24.7227C87.8971 24.6784 87.7161 24.6133 87.5547 24.5273V23.7422C87.7214 23.8411 87.9089 23.9245 88.1172 23.9922C88.3281 24.0573 88.5443 24.0898 88.7656 24.0898C88.9375 24.0898 89.0872 24.0664 89.2148 24.0195C89.3424 23.9727 89.4414 23.9062 89.5117 23.8203C89.5846 23.7318 89.6211 23.625 89.6211 23.5C89.6211 23.4089 89.6003 23.3281 89.5586 23.2578C89.5169 23.1875 89.4453 23.1159 89.3438 23.043C89.2422 22.9701 89.1016 22.8828 88.9219 22.7812C88.7318 22.6745 88.5703 22.5664 88.4375 22.457C88.3073 22.3451 88.207 22.2214 88.1367 22.0859C88.069 21.9505 88.0352 21.7917 88.0352 21.6094C88.0352 21.3359 88.0977 21.1029 88.2227 20.9102C88.3503 20.7148 88.5299 20.5664 88.7617 20.4648C88.9961 20.3607 89.2721 20.3086 89.5898 20.3086C89.8451 20.3086 90.0859 20.3385 90.3125 20.3984C90.5391 20.4557 90.7487 20.5365 90.9414 20.6406L90.6406 21.3203C90.4974 21.2396 90.3385 21.1706 90.1641 21.1133C89.9896 21.0534 89.8021 21.0234 89.6016 21.0234C89.4167 21.0234 89.2617 21.0664 89.1367 21.1523C89.0143 21.2383 88.9531 21.3607 88.9531 21.5195C88.9531 21.6029 88.9727 21.6784 89.0117 21.7461C89.0534 21.8112 89.1224 21.8776 89.2188 21.9453C89.3151 22.013 89.4466 22.0911 89.6133 22.1797C89.793 22.2786 89.9531 22.3828 90.0938 22.4922C90.2344 22.6016 90.3451 22.7279 90.4258 22.8711C90.5065 23.0117 90.5469 23.1823 90.5469 23.3828C90.5469 23.6875 90.4753 23.9453 90.332 24.1562C90.1914 24.3646 89.9909 24.5234 89.7305 24.6328C89.4701 24.7396 89.1628 24.793 88.8086 24.793ZM91.2891 24.7148L92.5781 18.6367H93.4883L93.2031 19.9531C93.1823 20.0677 93.1536 20.1927 93.1172 20.3281C93.0833 20.4635 93.0469 20.5977 93.0078 20.7305C92.9714 20.8633 92.9362 20.9857 92.9023 21.0977H92.9375C93.0417 20.9622 93.1589 20.8346 93.2891 20.7148C93.4219 20.5951 93.5703 20.4987 93.7344 20.4258C93.901 20.3503 94.0859 20.3125 94.2891 20.3125C94.526 20.3125 94.7266 20.3594 94.8906 20.4531C95.0547 20.5443 95.1797 20.6771 95.2656 20.8516C95.3516 21.0234 95.3945 21.2344 95.3945 21.4844C95.3945 21.5833 95.3867 21.6901 95.3711 21.8047C95.3555 21.9167 95.3346 22.0339 95.3086 22.1562L94.7656 24.7148H93.8516L94.4062 22.0898C94.4297 21.9883 94.4466 21.8971 94.457 21.8164C94.4674 21.7357 94.4727 21.6628 94.4727 21.5977C94.4727 21.4206 94.431 21.2865 94.3477 21.1953C94.2643 21.1042 94.1354 21.0586 93.9609 21.0586C93.776 21.0586 93.5938 21.1302 93.4141 21.2734C93.2344 21.4141 93.0729 21.6198 92.9297 21.8906C92.7865 22.1589 92.6745 22.4844 92.5938 22.8672L92.2031 24.7148H91.2891ZM96.4141 22.9727L97.1094 19.0039H98.168L97.1797 22.9727H96.4141ZM96.4648 24.8203C96.2904 24.8203 96.1628 24.7747 96.082 24.6836C96.0039 24.5898 95.9648 24.4753 95.9648 24.3398C95.9648 24.1654 96.0169 24.0065 96.1211 23.8633C96.2253 23.7201 96.3997 23.6484 96.6445 23.6484C96.7904 23.6484 96.9062 23.6914 96.9922 23.7773C97.0807 23.8607 97.125 23.9792 97.125 24.1328C97.125 24.3177 97.0677 24.4792 96.9531 24.6172C96.8385 24.7526 96.6758 24.8203 96.4648 24.8203Z" fill="black" fill-opacity="0.47"/>
<path d="M58.0518 0.890625C58.7376 1.78227 59.3197 2.27142 59.9062 2.71387C60.4207 3.1019 61.0243 3.51035 61.6631 4.12109L61.9531 4.41113C63.5243 6.10944 64.1326 8.57167 63.0498 10.7969L61.5781 13.8213L61.1582 10.4844C61.127 10.2362 61.1271 9.98548 61.1309 9.77344C61.1351 9.53393 61.1436 9.36416 61.1436 9.14844C61.1435 8.74914 61.1079 8.42178 60.9893 8.12695C60.8379 7.75079 60.4603 7.21922 59.2832 6.74707L60.3281 12.6699C60.6288 13.6158 60.4496 14.4999 59.9932 15.2129C59.5422 15.9173 58.8451 16.4281 58.1377 16.749C57.4294 17.0704 56.6207 17.243 55.8721 17.1855C55.1358 17.1289 54.2804 16.8235 53.8223 15.998L53.8184 15.9912C53.4108 15.2429 53.5891 14.4367 53.8662 13.8545C54.1535 13.2511 54.63 12.6907 55.1699 12.249C55.7112 11.8064 56.377 11.4327 57.0879 11.2656C57.2562 11.2261 57.4309 11.199 57.6084 11.1846L56.0391 1.72168L55.8877 0.810547L56.7842 0.587891L57.0176 0.529297L57.6523 0.37207L58.0518 0.890625ZM20.3027 12.042C20.2526 12.3213 20.2096 12.5755 20.1738 12.8047C20.1452 13.0267 20.1309 13.2308 20.1309 13.417C20.1309 13.8968 20.2419 14.262 20.4639 14.5127C20.693 14.7562 21.0475 14.8779 21.5273 14.8779C22.043 14.8779 22.5443 14.6846 23.0312 14.2979C23.5254 13.904 23.973 13.3346 24.374 12.5898C24.7751 11.8451 25.0866 10.9463 25.3086 9.89355L26.3828 4.82324H28.875L26.3613 16.7148H24.3848L24.6426 14.459H24.5352C24.2487 14.8815 23.9157 15.2826 23.5361 15.6621C23.1566 16.0345 22.7269 16.3389 22.2471 16.5752C21.7673 16.8115 21.223 16.9297 20.6143 16.9297C19.9769 16.9297 19.4326 16.8044 18.9814 16.5537C18.5374 16.3031 18.1973 15.9414 17.9609 15.4688C17.7318 14.9889 17.6172 14.416 17.6172 13.75C17.6172 13.4564 17.6387 13.1341 17.6816 12.7832C17.7318 12.4251 17.7926 12.0563 17.8643 11.6768L19.3252 4.82324H21.8389L20.3027 12.042ZM36.749 4.59766C37.9665 4.59766 38.8796 4.87337 39.4883 5.4248C40.1042 5.96908 40.4121 6.69238 40.4121 7.59473C40.4121 8.21061 40.2725 8.77279 39.9932 9.28125C39.7139 9.78971 39.2878 10.2301 38.7148 10.6025C38.1491 10.9678 37.4294 11.2507 36.5557 11.4512C35.6891 11.6517 34.6686 11.752 33.4941 11.752H33.0107C33.0036 11.8594 32.9964 11.9704 32.9893 12.085C32.9821 12.1924 32.9785 12.2998 32.9785 12.4072C32.9785 13.2021 33.1862 13.8288 33.6016 14.2871C34.0169 14.7383 34.6221 14.9639 35.417 14.9639C36.0186 14.9639 36.5736 14.8887 37.082 14.7383C37.5905 14.5879 38.1598 14.3623 38.79 14.0615V16.0488C38.21 16.3281 37.6227 16.5465 37.0283 16.7041C36.4339 16.8545 35.7393 16.9297 34.9443 16.9297C34.0348 16.9297 33.2399 16.7578 32.5596 16.4141C31.8864 16.0632 31.3636 15.5511 30.9912 14.8779C30.626 14.1976 30.4434 13.3669 30.4434 12.3857C30.4434 11.4118 30.583 10.4629 30.8623 9.53906C31.1416 8.60807 31.5534 7.77018 32.0977 7.02539C32.6419 6.2806 33.3044 5.68978 34.085 5.25293C34.8656 4.81608 35.7536 4.59766 36.749 4.59766ZM83.8105 4.59766C84.3262 4.59766 84.7773 4.68717 85.1641 4.86621C85.5508 5.03809 85.8766 5.27083 86.1416 5.56445C86.4066 5.85807 86.6214 6.18392 86.7861 6.54199H86.8828L87.5273 4.82324H89.4609L86.9365 16.7148H85.0137L85.25 14.792H85.1641C84.8561 15.1859 84.5124 15.5439 84.1328 15.8662C83.7604 16.1885 83.3486 16.4463 82.8975 16.6396C82.4463 16.833 81.9521 16.9297 81.415 16.9297C80.8063 16.9297 80.2513 16.7829 79.75 16.4893C79.2559 16.1885 78.862 15.7301 78.5684 15.1143C78.2747 14.4912 78.1279 13.6999 78.1279 12.7402C78.1279 11.9095 78.2139 11.1003 78.3857 10.3125C78.5648 9.52474 78.8154 8.78711 79.1377 8.09961C79.4671 7.41211 79.8646 6.80697 80.3301 6.28418C80.7956 5.75423 81.3219 5.34245 81.9092 5.04883C82.4964 4.74805 83.1302 4.59766 83.8105 4.59766ZM11.2148 3.17969H5.40332L4.37207 8.08887H9.79688L9.32422 10.2588H3.89941L2.53516 16.7148H0L3.31934 1.00977H11.666L11.2148 3.17969ZM13.374 16.7148H10.8604L14.416 0H16.9189L13.374 16.7148ZM49.8008 4.56543C50.4596 4.56543 51.0182 4.69434 51.4766 4.95215C51.9349 5.20996 52.2822 5.57878 52.5186 6.05859C52.7549 6.53841 52.873 7.11133 52.873 7.77734C52.873 8.07096 52.848 8.38607 52.7979 8.72266C52.7549 9.05208 52.6976 9.37435 52.626 9.68945L51.1328 16.7148H48.5654L50.0908 9.48535C50.1553 9.20605 50.2018 8.9554 50.2305 8.7334C50.2663 8.51139 50.2842 8.30371 50.2842 8.11035C50.2842 7.6377 50.166 7.2832 49.9297 7.04688C49.7005 6.81055 49.3568 6.69238 48.8984 6.69238C48.3971 6.69238 47.903 6.88574 47.416 7.27246C46.929 7.65918 46.4886 8.22135 46.0947 8.95898C45.7008 9.69661 45.3893 10.5882 45.1602 11.6338L44.0859 16.7148H41.5078L44.043 4.79102H46.0732L45.8154 7.03613H45.8799C46.1663 6.61361 46.4993 6.21615 46.8789 5.84375C47.2585 5.46419 47.6882 5.15625 48.168 4.91992C48.6549 4.68359 49.1992 4.56543 49.8008 4.56543ZM77.4404 3.17969H71.6182L70.7158 7.44434H76.1621L75.7109 9.60352H70.2646L69.2119 14.5342H75.0342L74.5723 16.7148H66.2148L69.5342 1.00977H77.9023L77.4404 3.17969ZM98.4307 4.59766C98.624 4.59766 98.8245 4.61198 99.0322 4.64062C99.2471 4.66211 99.4333 4.69434 99.5908 4.7373L99.043 7.10059C98.8854 7.05762 98.7135 7.02181 98.5273 6.99316C98.3411 6.96452 98.1442 6.9502 97.9365 6.9502C97.4639 6.9502 97.0199 7.0612 96.6045 7.2832C96.1891 7.50521 95.8132 7.81315 95.4766 8.20703C95.14 8.60091 94.8499 9.06283 94.6064 9.59277C94.363 10.1156 94.1732 10.6849 94.0371 11.3008L92.8984 16.7148H90.3848L92.9092 4.82324H94.875L94.6172 7.06836H94.7354C95.0433 6.61003 95.3763 6.19466 95.7344 5.82227C96.0996 5.44987 96.5042 5.15267 96.9482 4.93066C97.3923 4.70866 97.8864 4.59766 98.4307 4.59766ZM57.0254 1.55762L58.8311 12.4434C57.0258 11.286 53.9398 14.123 54.6963 15.5127C55.628 17.1918 60.2868 15.5706 59.3555 12.9072L58.0156 5.32129C63.0818 6.47931 61.9758 8.96965 62.1504 10.3594C63.0238 8.56439 62.5581 6.53741 61.2188 5.08984C59.8795 3.70035 58.7728 3.46859 57.2588 1.5L57.0254 1.55762ZM84.165 6.66016C83.7712 6.66016 83.3952 6.77116 83.0371 6.99316C82.6862 7.21517 82.3675 7.52311 82.0811 7.91699C81.7946 8.30371 81.5439 8.7513 81.3291 9.25977C81.1214 9.76823 80.9603 10.3161 80.8457 10.9033C80.7383 11.4834 80.6846 12.0742 80.6846 12.6758C80.6846 13.3991 80.8278 13.9469 81.1143 14.3193C81.4079 14.6917 81.8161 14.8779 82.3389 14.8779C82.8402 14.8779 83.32 14.6917 83.7783 14.3193C84.2367 13.9398 84.6413 13.4385 84.9922 12.8154C85.3503 12.1924 85.6152 11.5085 85.7871 10.7637C85.873 10.4056 85.9303 10.0654 85.959 9.74316C85.9948 9.4209 86.0127 9.09863 86.0127 8.77637C86.0127 8.15332 85.848 7.64486 85.5186 7.25098C85.1891 6.8571 84.738 6.66016 84.165 6.66016ZM36.5986 6.50977C36.1475 6.50977 35.7035 6.64941 35.2666 6.92871C34.8298 7.20085 34.4395 7.59473 34.0957 8.11035C33.752 8.61882 33.4941 9.22396 33.3223 9.92578H33.6875C34.5612 9.92578 35.3203 9.84342 35.9648 9.67871C36.6094 9.50684 37.1071 9.25618 37.458 8.92676C37.8089 8.59017 37.9844 8.18197 37.9844 7.70215C37.9844 7.32975 37.8662 7.03971 37.6299 6.83203C37.4007 6.61719 37.057 6.50977 36.5986 6.50977Z" fill="#FA6673"/>
</svg>
