<svg width="30" height="30" viewBox="0 0 30 30" fill="none" xmlns="http://www.w3.org/2000/svg">
<rect x="0.55" y="0.55" width="28.9" height="28.9" rx="1.45" fill="white"/>
<rect x="0.55" y="0.55" width="28.9" height="28.9" rx="1.45" stroke="black" stroke-width="0.9"/>
<path d="M2.41245 9.07645C2.62894 9.07645 2.80445 8.90095 2.80445 8.68445C2.80445 8.46795 2.62894 8.29245 2.41245 8.29245C2.19595 8.29245 2.02045 8.46795 2.02045 8.68445C2.02045 8.90095 2.19595 9.07645 2.41245 9.07645Z" fill="black"/>
<path d="M2.41245 12.9964C2.62894 12.9964 2.80445 12.8209 2.80445 12.6044C2.80445 12.3879 2.62894 12.2124 2.41245 12.2124C2.19595 12.2124 2.02045 12.3879 2.02045 12.6044C2.02045 12.8209 2.19595 12.9964 2.41245 12.9964Z" fill="black"/>
<path d="M2.41245 14.5644C2.62894 14.5644 2.80445 14.3889 2.80445 14.1724C2.80445 13.9559 2.62894 13.7804 2.41245 13.7804C2.19595 13.7804 2.02045 13.9559 2.02045 14.1724C2.02045 14.3889 2.19595 14.5644 2.41245 14.5644Z" fill="black"/>
<path d="M2.41245 16.9164C2.62894 16.9164 2.80445 16.7409 2.80445 16.5244C2.80445 16.3079 2.62894 16.1324 2.41245 16.1324C2.19595 16.1324 2.02045 16.3079 2.02045 16.5244C2.02045 16.7409 2.19595 16.9164 2.41245 16.9164Z" fill="black"/>
<path d="M2.41245 20.0524C2.62894 20.0524 2.80445 19.8769 2.80445 19.6604C2.80445 19.4439 2.62894 19.2684 2.41245 19.2684C2.19595 19.2684 2.02045 19.4439 2.02045 19.6604C2.02045 19.8769 2.19595 20.0524 2.41245 20.0524Z" fill="black"/>
<path d="M2.41245 20.8364C2.62894 20.8364 2.80445 20.6609 2.80445 20.4444C2.80445 20.2279 2.62894 20.0524 2.41245 20.0524C2.19595 20.0524 2.02045 20.2279 2.02045 20.4444C2.02045 20.6609 2.19595 20.8364 2.41245 20.8364Z" fill="black"/>
<path d="M2.41245 21.6204C2.62894 21.6204 2.80445 21.4449 2.80445 21.2284C2.80445 21.0119 2.62894 20.8364 2.41245 20.8364C2.19595 20.8364 2.02045 21.0119 2.02045 21.2284C2.02045 21.4449 2.19595 21.6204 2.41245 21.6204Z" fill="black"/>
<path d="M3.19644 9.07645C3.41294 9.07645 3.58844 8.90095 3.58844 8.68445C3.58844 8.46795 3.41294 8.29245 3.19644 8.29245C2.97995 8.29245 2.80444 8.46795 2.80444 8.68445C2.80444 8.90095 2.97995 9.07645 3.19644 9.07645Z" fill="black"/>
<path d="M3.19644 9.86045C3.41294 9.86045 3.58844 9.68494 3.58844 9.46845C3.58844 9.25195 3.41294 9.07645 3.19644 9.07645C2.97995 9.07645 2.80444 9.25195 2.80444 9.46845C2.80444 9.68494 2.97995 9.86045 3.19644 9.86045Z" fill="black"/>
<path d="M3.19644 11.4284C3.41294 11.4284 3.58844 11.2529 3.58844 11.0364C3.58844 10.8199 3.41294 10.6444 3.19644 10.6444C2.97995 10.6444 2.80444 10.8199 2.80444 11.0364C2.80444 11.2529 2.97995 11.4284 3.19644 11.4284Z" fill="black"/>
<path d="M3.19644 12.2124C3.41294 12.2124 3.58844 12.0369 3.58844 11.8204C3.58844 11.6039 3.41294 11.4284 3.19644 11.4284C2.97995 11.4284 2.80444 11.6039 2.80444 11.8204C2.80444 12.0369 2.97995 12.2124 3.19644 12.2124Z" fill="black"/>
<path d="M3.19644 15.3484C3.41294 15.3484 3.58844 15.1729 3.58844 14.9564C3.58844 14.7399 3.41294 14.5644 3.19644 14.5644C2.97995 14.5644 2.80444 14.7399 2.80444 14.9564C2.80444 15.1729 2.97995 15.3484 3.19644 15.3484Z" fill="black"/>
<path d="M3.19644 16.1324C3.41294 16.1324 3.58844 15.9569 3.58844 15.7404C3.58844 15.5239 3.41294 15.3484 3.19644 15.3484C2.97995 15.3484 2.80444 15.5239 2.80444 15.7404C2.80444 15.9569 2.97995 16.1324 3.19644 16.1324Z" fill="black"/>
<path d="M3.19644 16.9164C3.41294 16.9164 3.58844 16.7409 3.58844 16.5244C3.58844 16.3079 3.41294 16.1324 3.19644 16.1324C2.97995 16.1324 2.80444 16.3079 2.80444 16.5244C2.80444 16.7409 2.97995 16.9164 3.19644 16.9164Z" fill="black"/>
<path d="M3.19644 17.7004C3.41294 17.7004 3.58844 17.5249 3.58844 17.3084C3.58844 17.0919 3.41294 16.9164 3.19644 16.9164C2.97995 16.9164 2.80444 17.0919 2.80444 17.3084C2.80444 17.5249 2.97995 17.7004 3.19644 17.7004Z" fill="black"/>
<path d="M3.19644 19.2684C3.41294 19.2684 3.58844 19.0929 3.58844 18.8764C3.58844 18.6599 3.41294 18.4844 3.19644 18.4844C2.97995 18.4844 2.80444 18.6599 2.80444 18.8764C2.80444 19.0929 2.97995 19.2684 3.19644 19.2684Z" fill="black"/>
<path d="M3.19644 20.0524C3.41294 20.0524 3.58844 19.8769 3.58844 19.6604C3.58844 19.4439 3.41294 19.2684 3.19644 19.2684C2.97995 19.2684 2.80444 19.4439 2.80444 19.6604C2.80444 19.8769 2.97995 20.0524 3.19644 20.0524Z" fill="black"/>
<path d="M3.19644 20.8364C3.41294 20.8364 3.58844 20.6609 3.58844 20.4444C3.58844 20.2279 3.41294 20.0524 3.19644 20.0524C2.97995 20.0524 2.80444 20.2279 2.80444 20.4444C2.80444 20.6609 2.97995 20.8364 3.19644 20.8364Z" fill="black"/>
<path d="M3.98044 16.1324C4.19694 16.1324 4.37244 15.9569 4.37244 15.7404C4.37244 15.5239 4.19694 15.3484 3.98044 15.3484C3.76394 15.3484 3.58844 15.5239 3.58844 15.7404C3.58844 15.9569 3.76394 16.1324 3.98044 16.1324Z" fill="black"/>
<path d="M3.98044 16.9164C4.19694 16.9164 4.37244 16.7409 4.37244 16.5244C4.37244 16.3079 4.19694 16.1324 3.98044 16.1324C3.76394 16.1324 3.58844 16.3079 3.58844 16.5244C3.58844 16.7409 3.76394 16.9164 3.98044 16.9164Z" fill="black"/>
<path d="M3.98044 21.6204C4.19694 21.6204 4.37244 21.4449 4.37244 21.2284C4.37244 21.0119 4.19694 20.8364 3.98044 20.8364C3.76394 20.8364 3.58844 21.0119 3.58844 21.2284C3.58844 21.4449 3.76394 21.6204 3.98044 21.6204Z" fill="black"/>
<path d="M4.76444 9.07645C4.98093 9.07645 5.15644 8.90095 5.15644 8.68445C5.15644 8.46795 4.98093 8.29245 4.76444 8.29245C4.54794 8.29245 4.37244 8.46795 4.37244 8.68445C4.37244 8.90095 4.54794 9.07645 4.76444 9.07645Z" fill="black"/>
<path d="M4.76444 9.86045C4.98093 9.86045 5.15644 9.68494 5.15644 9.46845C5.15644 9.25195 4.98093 9.07645 4.76444 9.07645C4.54794 9.07645 4.37244 9.25195 4.37244 9.46845C4.37244 9.68494 4.54794 9.86045 4.76444 9.86045Z" fill="black"/>
<path d="M4.76444 10.6444C4.98093 10.6444 5.15644 10.4689 5.15644 10.2524C5.15644 10.0359 4.98093 9.86044 4.76444 9.86044C4.54794 9.86044 4.37244 10.0359 4.37244 10.2524C4.37244 10.4689 4.54794 10.6444 4.76444 10.6444Z" fill="black"/>
<path d="M4.76444 11.4284C4.98093 11.4284 5.15644 11.2529 5.15644 11.0364C5.15644 10.8199 4.98093 10.6444 4.76444 10.6444C4.54794 10.6444 4.37244 10.8199 4.37244 11.0364C4.37244 11.2529 4.54794 11.4284 4.76444 11.4284Z" fill="black"/>
<path d="M4.76444 12.2124C4.98093 12.2124 5.15644 12.0369 5.15644 11.8204C5.15644 11.6039 4.98093 11.4284 4.76444 11.4284C4.54794 11.4284 4.37244 11.6039 4.37244 11.8204C4.37244 12.0369 4.54794 12.2124 4.76444 12.2124Z" fill="black"/>
<path d="M4.76444 12.9964C4.98093 12.9964 5.15644 12.8209 5.15644 12.6044C5.15644 12.3879 4.98093 12.2124 4.76444 12.2124C4.54794 12.2124 4.37244 12.3879 4.37244 12.6044C4.37244 12.8209 4.54794 12.9964 4.76444 12.9964Z" fill="black"/>
<path d="M4.76444 13.7804C4.98093 13.7804 5.15644 13.6049 5.15644 13.3884C5.15644 13.1719 4.98093 12.9964 4.76444 12.9964C4.54794 12.9964 4.37244 13.1719 4.37244 13.3884C4.37244 13.6049 4.54794 13.7804 4.76444 13.7804Z" fill="black"/>
<path d="M4.76444 14.5644C4.98093 14.5644 5.15644 14.3889 5.15644 14.1724C5.15644 13.9559 4.98093 13.7804 4.76444 13.7804C4.54794 13.7804 4.37244 13.9559 4.37244 14.1724C4.37244 14.3889 4.54794 14.5644 4.76444 14.5644Z" fill="black"/>
<path d="M4.76444 16.9164C4.98093 16.9164 5.15644 16.7409 5.15644 16.5244C5.15644 16.3079 4.98093 16.1324 4.76444 16.1324C4.54794 16.1324 4.37244 16.3079 4.37244 16.5244C4.37244 16.7409 4.54794 16.9164 4.76444 16.9164Z" fill="black"/>
<path d="M4.76444 18.4844C4.98093 18.4844 5.15644 18.3089 5.15644 18.0924C5.15644 17.8759 4.98093 17.7004 4.76444 17.7004C4.54794 17.7004 4.37244 17.8759 4.37244 18.0924C4.37244 18.3089 4.54794 18.4844 4.76444 18.4844Z" fill="black"/>
<path d="M4.76444 20.0524C4.98093 20.0524 5.15644 19.8769 5.15644 19.6604C5.15644 19.4439 4.98093 19.2684 4.76444 19.2684C4.54794 19.2684 4.37244 19.4439 4.37244 19.6604C4.37244 19.8769 4.54794 20.0524 4.76444 20.0524Z" fill="black"/>
<path d="M5.54843 9.07645C5.76493 9.07645 5.94043 8.90095 5.94043 8.68445C5.94043 8.46795 5.76493 8.29245 5.54843 8.29245C5.33194 8.29245 5.15643 8.46795 5.15643 8.68445C5.15643 8.90095 5.33194 9.07645 5.54843 9.07645Z" fill="black"/>
<path d="M5.54843 9.86045C5.76493 9.86045 5.94043 9.68494 5.94043 9.46845C5.94043 9.25195 5.76493 9.07645 5.54843 9.07645C5.33194 9.07645 5.15643 9.25195 5.15643 9.46845C5.15643 9.68494 5.33194 9.86045 5.54843 9.86045Z" fill="black"/>
<path d="M5.54843 10.6444C5.76493 10.6444 5.94043 10.4689 5.94043 10.2524C5.94043 10.0359 5.76493 9.86044 5.54843 9.86044C5.33194 9.86044 5.15643 10.0359 5.15643 10.2524C5.15643 10.4689 5.33194 10.6444 5.54843 10.6444Z" fill="black"/>
<path d="M5.54843 11.4284C5.76493 11.4284 5.94043 11.2529 5.94043 11.0364C5.94043 10.8199 5.76493 10.6444 5.54843 10.6444C5.33194 10.6444 5.15643 10.8199 5.15643 11.0364C5.15643 11.2529 5.33194 11.4284 5.54843 11.4284Z" fill="black"/>
<path d="M5.54843 12.2124C5.76493 12.2124 5.94043 12.0369 5.94043 11.8204C5.94043 11.6039 5.76493 11.4284 5.54843 11.4284C5.33194 11.4284 5.15643 11.6039 5.15643 11.8204C5.15643 12.0369 5.33194 12.2124 5.54843 12.2124Z" fill="black"/>
<path d="M5.54843 16.9164C5.76493 16.9164 5.94043 16.7409 5.94043 16.5244C5.94043 16.3079 5.76493 16.1324 5.54843 16.1324C5.33194 16.1324 5.15643 16.3079 5.15643 16.5244C5.15643 16.7409 5.33194 16.9164 5.54843 16.9164Z" fill="black"/>
<path d="M5.54843 19.2684C5.76493 19.2684 5.94043 19.0929 5.94043 18.8764C5.94043 18.6599 5.76493 18.4844 5.54843 18.4844C5.33194 18.4844 5.15643 18.6599 5.15643 18.8764C5.15643 19.0929 5.33194 19.2684 5.54843 19.2684Z" fill="black"/>
<path d="M5.54843 20.0524C5.76493 20.0524 5.94043 19.8769 5.94043 19.6604C5.94043 19.4439 5.76493 19.2684 5.54843 19.2684C5.33194 19.2684 5.15643 19.4439 5.15643 19.6604C5.15643 19.8769 5.33194 20.0524 5.54843 20.0524Z" fill="black"/>
<path d="M6.33246 9.07645C6.54896 9.07645 6.72446 8.90095 6.72446 8.68445C6.72446 8.46795 6.54896 8.29245 6.33246 8.29245C6.11596 8.29245 5.94046 8.46795 5.94046 8.68445C5.94046 8.90095 6.11596 9.07645 6.33246 9.07645Z" fill="black"/>
<path d="M6.33246 9.86045C6.54896 9.86045 6.72446 9.68494 6.72446 9.46845C6.72446 9.25195 6.54896 9.07645 6.33246 9.07645C6.11596 9.07645 5.94046 9.25195 5.94046 9.46845C5.94046 9.68494 6.11596 9.86045 6.33246 9.86045Z" fill="black"/>
<path d="M6.33246 10.6444C6.54896 10.6444 6.72446 10.4689 6.72446 10.2524C6.72446 10.0359 6.54896 9.86044 6.33246 9.86044C6.11596 9.86044 5.94046 10.0359 5.94046 10.2524C5.94046 10.4689 6.11596 10.6444 6.33246 10.6444Z" fill="black"/>
<path d="M6.33246 12.9964C6.54896 12.9964 6.72446 12.8209 6.72446 12.6044C6.72446 12.3879 6.54896 12.2124 6.33246 12.2124C6.11596 12.2124 5.94046 12.3879 5.94046 12.6044C5.94046 12.8209 6.11596 12.9964 6.33246 12.9964Z" fill="black"/>
<path d="M6.33246 13.7804C6.54896 13.7804 6.72446 13.6049 6.72446 13.3884C6.72446 13.1719 6.54896 12.9964 6.33246 12.9964C6.11596 12.9964 5.94046 13.1719 5.94046 13.3884C5.94046 13.6049 6.11596 13.7804 6.33246 13.7804Z" fill="black"/>
<path d="M6.33246 16.1324C6.54896 16.1324 6.72446 15.9569 6.72446 15.7404C6.72446 15.5239 6.54896 15.3484 6.33246 15.3484C6.11596 15.3484 5.94046 15.5239 5.94046 15.7404C5.94046 15.9569 6.11596 16.1324 6.33246 16.1324Z" fill="black"/>
<path d="M6.33246 17.7004C6.54896 17.7004 6.72446 17.5249 6.72446 17.3084C6.72446 17.0919 6.54896 16.9164 6.33246 16.9164C6.11596 16.9164 5.94046 17.0919 5.94046 17.3084C5.94046 17.5249 6.11596 17.7004 6.33246 17.7004Z" fill="black"/>
<path d="M6.33246 18.4844C6.54896 18.4844 6.72446 18.3089 6.72446 18.0924C6.72446 17.8759 6.54896 17.7004 6.33246 17.7004C6.11596 17.7004 5.94046 17.8759 5.94046 18.0924C5.94046 18.3089 6.11596 18.4844 6.33246 18.4844Z" fill="black"/>
<path d="M6.33246 19.2684C6.54896 19.2684 6.72446 19.0929 6.72446 18.8764C6.72446 18.6599 6.54896 18.4844 6.33246 18.4844C6.11596 18.4844 5.94046 18.6599 5.94046 18.8764C5.94046 19.0929 6.11596 19.2684 6.33246 19.2684Z" fill="black"/>
<path d="M6.33246 20.0524C6.54896 20.0524 6.72446 19.8769 6.72446 19.6604C6.72446 19.4439 6.54896 19.2684 6.33246 19.2684C6.11596 19.2684 5.94046 19.4439 5.94046 19.6604C5.94046 19.8769 6.11596 20.0524 6.33246 20.0524Z" fill="black"/>
<path d="M6.33246 20.8364C6.54896 20.8364 6.72446 20.6609 6.72446 20.4444C6.72446 20.2279 6.54896 20.0524 6.33246 20.0524C6.11596 20.0524 5.94046 20.2279 5.94046 20.4444C5.94046 20.6609 6.11596 20.8364 6.33246 20.8364Z" fill="black"/>
<path d="M7.11646 9.07645C7.33295 9.07645 7.50846 8.90095 7.50846 8.68445C7.50846 8.46795 7.33295 8.29245 7.11646 8.29245C6.89996 8.29245 6.72446 8.46795 6.72446 8.68445C6.72446 8.90095 6.89996 9.07645 7.11646 9.07645Z" fill="black"/>
<path d="M7.11646 10.6444C7.33295 10.6444 7.50846 10.4689 7.50846 10.2524C7.50846 10.0359 7.33295 9.86044 7.11646 9.86044C6.89996 9.86044 6.72446 10.0359 6.72446 10.2524C6.72446 10.4689 6.89996 10.6444 7.11646 10.6444Z" fill="black"/>
<path d="M7.11646 12.2124C7.33295 12.2124 7.50846 12.0369 7.50846 11.8204C7.50846 11.6039 7.33295 11.4284 7.11646 11.4284C6.89996 11.4284 6.72446 11.6039 6.72446 11.8204C6.72446 12.0369 6.89996 12.2124 7.11646 12.2124Z" fill="black"/>
<path d="M7.11646 13.7804C7.33295 13.7804 7.50846 13.6049 7.50846 13.3884C7.50846 13.1719 7.33295 12.9964 7.11646 12.9964C6.89996 12.9964 6.72446 13.1719 6.72446 13.3884C6.72446 13.6049 6.89996 13.7804 7.11646 13.7804Z" fill="black"/>
<path d="M7.11646 15.3484C7.33295 15.3484 7.50846 15.1729 7.50846 14.9564C7.50846 14.7399 7.33295 14.5644 7.11646 14.5644C6.89996 14.5644 6.72446 14.7399 6.72446 14.9564C6.72446 15.1729 6.89996 15.3484 7.11646 15.3484Z" fill="black"/>
<path d="M7.11646 16.9164C7.33295 16.9164 7.50846 16.7409 7.50846 16.5244C7.50846 16.3079 7.33295 16.1324 7.11646 16.1324C6.89996 16.1324 6.72446 16.3079 6.72446 16.5244C6.72446 16.7409 6.89996 16.9164 7.11646 16.9164Z" fill="black"/>
<path d="M7.11646 18.4844C7.33295 18.4844 7.50846 18.3089 7.50846 18.0924C7.50846 17.8759 7.33295 17.7004 7.11646 17.7004C6.89996 17.7004 6.72446 17.8759 6.72446 18.0924C6.72446 18.3089 6.89996 18.4844 7.11646 18.4844Z" fill="black"/>
<path d="M7.11646 20.0524C7.33295 20.0524 7.50846 19.8769 7.50846 19.6604C7.50846 19.4439 7.33295 19.2684 7.11646 19.2684C6.89996 19.2684 6.72446 19.4439 6.72446 19.6604C6.72446 19.8769 6.89996 20.0524 7.11646 20.0524Z" fill="black"/>
<path d="M7.11646 21.6204C7.33295 21.6204 7.50846 21.4449 7.50846 21.2284C7.50846 21.0119 7.33295 20.8364 7.11646 20.8364C6.89996 20.8364 6.72446 21.0119 6.72446 21.2284C6.72446 21.4449 6.89996 21.6204 7.11646 21.6204Z" fill="black"/>
<path d="M7.90045 10.6444C8.11695 10.6444 8.29245 10.4689 8.29245 10.2524C8.29245 10.0359 8.11695 9.86044 7.90045 9.86044C7.68396 9.86044 7.50845 10.0359 7.50845 10.2524C7.50845 10.4689 7.68396 10.6444 7.90045 10.6444Z" fill="black"/>
<path d="M7.90045 12.2124C8.11695 12.2124 8.29245 12.0369 8.29245 11.8204C8.29245 11.6039 8.11695 11.4284 7.90045 11.4284C7.68396 11.4284 7.50845 11.6039 7.50845 11.8204C7.50845 12.0369 7.68396 12.2124 7.90045 12.2124Z" fill="black"/>
<path d="M7.90045 12.9964C8.11695 12.9964 8.29245 12.8209 8.29245 12.6044C8.29245 12.3879 8.11695 12.2124 7.90045 12.2124C7.68396 12.2124 7.50845 12.3879 7.50845 12.6044C7.50845 12.8209 7.68396 12.9964 7.90045 12.9964Z" fill="black"/>
<path d="M7.90045 13.7804C8.11695 13.7804 8.29245 13.6049 8.29245 13.3884C8.29245 13.1719 8.11695 12.9964 7.90045 12.9964C7.68396 12.9964 7.50845 13.1719 7.50845 13.3884C7.50845 13.6049 7.68396 13.7804 7.90045 13.7804Z" fill="black"/>
<path d="M7.90045 14.5644C8.11695 14.5644 8.29245 14.3889 8.29245 14.1724C8.29245 13.9559 8.11695 13.7804 7.90045 13.7804C7.68396 13.7804 7.50845 13.9559 7.50845 14.1724C7.50845 14.3889 7.68396 14.5644 7.90045 14.5644Z" fill="black"/>
<path d="M7.90045 15.3484C8.11695 15.3484 8.29245 15.1729 8.29245 14.9564C8.29245 14.7399 8.11695 14.5644 7.90045 14.5644C7.68396 14.5644 7.50845 14.7399 7.50845 14.9564C7.50845 15.1729 7.68396 15.3484 7.90045 15.3484Z" fill="black"/>
<path d="M7.90045 16.9164C8.11695 16.9164 8.29245 16.7409 8.29245 16.5244C8.29245 16.3079 8.11695 16.1324 7.90045 16.1324C7.68396 16.1324 7.50845 16.3079 7.50845 16.5244C7.50845 16.7409 7.68396 16.9164 7.90045 16.9164Z" fill="black"/>
<path d="M7.90045 17.7004C8.11695 17.7004 8.29245 17.5249 8.29245 17.3084C8.29245 17.0919 8.11695 16.9164 7.90045 16.9164C7.68396 16.9164 7.50845 17.0919 7.50845 17.3084C7.50845 17.5249 7.68396 17.7004 7.90045 17.7004Z" fill="black"/>
<path d="M7.90045 18.4844C8.11695 18.4844 8.29245 18.3089 8.29245 18.0924C8.29245 17.8759 8.11695 17.7004 7.90045 17.7004C7.68396 17.7004 7.50845 17.8759 7.50845 18.0924C7.50845 18.3089 7.68396 18.4844 7.90045 18.4844Z" fill="black"/>
<path d="M7.90045 19.2684C8.11695 19.2684 8.29245 19.0929 8.29245 18.8764C8.29245 18.6599 8.11695 18.4844 7.90045 18.4844C7.68396 18.4844 7.50845 18.6599 7.50845 18.8764C7.50845 19.0929 7.68396 19.2684 7.90045 19.2684Z" fill="black"/>
<path d="M7.90045 21.6204C8.11695 21.6204 8.29245 21.4449 8.29245 21.2284C8.29245 21.0119 8.11695 20.8364 7.90045 20.8364C7.68396 20.8364 7.50845 21.0119 7.50845 21.2284C7.50845 21.4449 7.68396 21.6204 7.90045 21.6204Z" fill="black"/>
<path d="M8.68445 5.15644C8.90095 5.15644 9.07645 4.98093 9.07645 4.76444C9.07645 4.54794 8.90095 4.37244 8.68445 4.37244C8.46795 4.37244 8.29245 4.54794 8.29245 4.76444C8.29245 4.98093 8.46795 5.15644 8.68445 5.15644Z" fill="black"/>
<path d="M8.68445 7.50846C8.90095 7.50846 9.07645 7.33295 9.07645 7.11646C9.07645 6.89996 8.90095 6.72446 8.68445 6.72446C8.46795 6.72446 8.29245 6.89996 8.29245 7.11646C8.29245 7.33295 8.46795 7.50846 8.68445 7.50846Z" fill="black"/>
<path d="M8.68445 9.86045C8.90095 9.86045 9.07645 9.68494 9.07645 9.46845C9.07645 9.25195 8.90095 9.07645 8.68445 9.07645C8.46795 9.07645 8.29245 9.25195 8.29245 9.46845C8.29245 9.68494 8.46795 9.86045 8.68445 9.86045Z" fill="black"/>
<path d="M8.68445 11.4284C8.90095 11.4284 9.07645 11.2529 9.07645 11.0364C9.07645 10.8199 8.90095 10.6444 8.68445 10.6444C8.46795 10.6444 8.29245 10.8199 8.29245 11.0364C8.29245 11.2529 8.46795 11.4284 8.68445 11.4284Z" fill="black"/>
<path d="M8.68445 13.7804C8.90095 13.7804 9.07645 13.6049 9.07645 13.3884C9.07645 13.1719 8.90095 12.9964 8.68445 12.9964C8.46795 12.9964 8.29245 13.1719 8.29245 13.3884C8.29245 13.6049 8.46795 13.7804 8.68445 13.7804Z" fill="black"/>
<path d="M8.68445 15.3484C8.90095 15.3484 9.07645 15.1729 9.07645 14.9564C9.07645 14.7399 8.90095 14.5644 8.68445 14.5644C8.46795 14.5644 8.29245 14.7399 8.29245 14.9564C8.29245 15.1729 8.46795 15.3484 8.68445 15.3484Z" fill="black"/>
<path d="M8.68445 16.1324C8.90095 16.1324 9.07645 15.9569 9.07645 15.7404C9.07645 15.5239 8.90095 15.3484 8.68445 15.3484C8.46795 15.3484 8.29245 15.5239 8.29245 15.7404C8.29245 15.9569 8.46795 16.1324 8.68445 16.1324Z" fill="black"/>
<path d="M8.68445 17.7004C8.90095 17.7004 9.07645 17.5249 9.07645 17.3084C9.07645 17.0919 8.90095 16.9164 8.68445 16.9164C8.46795 16.9164 8.29245 17.0919 8.29245 17.3084C8.29245 17.5249 8.46795 17.7004 8.68445 17.7004Z" fill="black"/>
<path d="M8.68445 18.4844C8.90095 18.4844 9.07645 18.3089 9.07645 18.0924C9.07645 17.8759 8.90095 17.7004 8.68445 17.7004C8.46795 17.7004 8.29245 17.8759 8.29245 18.0924C8.29245 18.3089 8.46795 18.4844 8.68445 18.4844Z" fill="black"/>
<path d="M8.68445 19.2684C8.90095 19.2684 9.07645 19.0929 9.07645 18.8764C9.07645 18.6599 8.90095 18.4844 8.68445 18.4844C8.46795 18.4844 8.29245 18.6599 8.29245 18.8764C8.29245 19.0929 8.46795 19.2684 8.68445 19.2684Z" fill="black"/>
<path d="M8.68445 21.6204C8.90095 21.6204 9.07645 21.4449 9.07645 21.2284C9.07645 21.0119 8.90095 20.8364 8.68445 20.8364C8.46795 20.8364 8.29245 21.0119 8.29245 21.2284C8.29245 21.4449 8.46795 21.6204 8.68445 21.6204Z" fill="black"/>
<path d="M8.68445 23.9724C8.90095 23.9724 9.07645 23.7969 9.07645 23.5804C9.07645 23.3639 8.90095 23.1884 8.68445 23.1884C8.46795 23.1884 8.29245 23.3639 8.29245 23.5804C8.29245 23.7969 8.46795 23.9724 8.68445 23.9724Z" fill="black"/>
<path d="M8.68445 24.7565C8.90095 24.7565 9.07645 24.581 9.07645 24.3645C9.07645 24.148 8.90095 23.9725 8.68445 23.9725C8.46795 23.9725 8.29245 24.148 8.29245 24.3645C8.29245 24.581 8.46795 24.7565 8.68445 24.7565Z" fill="black"/>
<path d="M8.68445 25.5404C8.90095 25.5404 9.07645 25.3649 9.07645 25.1484C9.07645 24.9319 8.90095 24.7564 8.68445 24.7564C8.46795 24.7564 8.29245 24.9319 8.29245 25.1484C8.29245 25.3649 8.46795 25.5404 8.68445 25.5404Z" fill="black"/>
<path d="M8.68445 27.1085C8.90095 27.1085 9.07645 26.933 9.07645 26.7165C9.07645 26.5 8.90095 26.3245 8.68445 26.3245C8.46795 26.3245 8.29245 26.5 8.29245 26.7165C8.29245 26.933 8.46795 27.1085 8.68445 27.1085Z" fill="black"/>
<path d="M8.68445 27.8925C8.90095 27.8925 9.07645 27.717 9.07645 27.5005C9.07645 27.284 8.90095 27.1085 8.68445 27.1085C8.46795 27.1085 8.29245 27.284 8.29245 27.5005C8.29245 27.717 8.46795 27.8925 8.68445 27.8925Z" fill="black"/>
<path d="M9.46845 4.37244C9.68494 4.37244 9.86045 4.19694 9.86045 3.98044C9.86045 3.76394 9.68494 3.58844 9.46845 3.58844C9.25195 3.58844 9.07645 3.76394 9.07645 3.98044C9.07645 4.19694 9.25195 4.37244 9.46845 4.37244Z" fill="black"/>
<path d="M9.46845 5.15644C9.68494 5.15644 9.86045 4.98093 9.86045 4.76444C9.86045 4.54794 9.68494 4.37244 9.46845 4.37244C9.25195 4.37244 9.07645 4.54794 9.07645 4.76444C9.07645 4.98093 9.25195 5.15644 9.46845 5.15644Z" fill="black"/>
<path d="M9.46845 8.29245C9.68494 8.29245 9.86045 8.11695 9.86045 7.90045C9.86045 7.68396 9.68494 7.50845 9.46845 7.50845C9.25195 7.50845 9.07645 7.68396 9.07645 7.90045C9.07645 8.11695 9.25195 8.29245 9.46845 8.29245Z" fill="black"/>
<path d="M9.46845 9.86045C9.68494 9.86045 9.86045 9.68494 9.86045 9.46845C9.86045 9.25195 9.68494 9.07645 9.46845 9.07645C9.25195 9.07645 9.07645 9.25195 9.07645 9.46845C9.07645 9.68494 9.25195 9.86045 9.46845 9.86045Z" fill="black"/>
<path d="M9.46845 12.9964C9.68494 12.9964 9.86045 12.8209 9.86045 12.6044C9.86045 12.3879 9.68494 12.2124 9.46845 12.2124C9.25195 12.2124 9.07645 12.3879 9.07645 12.6044C9.07645 12.8209 9.25195 12.9964 9.46845 12.9964Z" fill="black"/>
<path d="M9.46845 13.7804C9.68494 13.7804 9.86045 13.6049 9.86045 13.3884C9.86045 13.1719 9.68494 12.9964 9.46845 12.9964C9.25195 12.9964 9.07645 13.1719 9.07645 13.3884C9.07645 13.6049 9.25195 13.7804 9.46845 13.7804Z" fill="black"/>
<path d="M9.46845 14.5644C9.68494 14.5644 9.86045 14.3889 9.86045 14.1724C9.86045 13.9559 9.68494 13.7804 9.46845 13.7804C9.25195 13.7804 9.07645 13.9559 9.07645 14.1724C9.07645 14.3889 9.25195 14.5644 9.46845 14.5644Z" fill="black"/>
<path d="M9.46845 15.3484C9.68494 15.3484 9.86045 15.1729 9.86045 14.9564C9.86045 14.7399 9.68494 14.5644 9.46845 14.5644C9.25195 14.5644 9.07645 14.7399 9.07645 14.9564C9.07645 15.1729 9.25195 15.3484 9.46845 15.3484Z" fill="black"/>
<path d="M9.46845 16.1324C9.68494 16.1324 9.86045 15.9569 9.86045 15.7404C9.86045 15.5239 9.68494 15.3484 9.46845 15.3484C9.25195 15.3484 9.07645 15.5239 9.07645 15.7404C9.07645 15.9569 9.25195 16.1324 9.46845 16.1324Z" fill="black"/>
<path d="M9.46845 17.7004C9.68494 17.7004 9.86045 17.5249 9.86045 17.3084C9.86045 17.0919 9.68494 16.9164 9.46845 16.9164C9.25195 16.9164 9.07645 17.0919 9.07645 17.3084C9.07645 17.5249 9.25195 17.7004 9.46845 17.7004Z" fill="black"/>
<path d="M9.46845 18.4844C9.68494 18.4844 9.86045 18.3089 9.86045 18.0924C9.86045 17.8759 9.68494 17.7004 9.46845 17.7004C9.25195 17.7004 9.07645 17.8759 9.07645 18.0924C9.07645 18.3089 9.25195 18.4844 9.46845 18.4844Z" fill="black"/>
<path d="M9.46845 19.2684C9.68494 19.2684 9.86045 19.0929 9.86045 18.8764C9.86045 18.6599 9.68494 18.4844 9.46845 18.4844C9.25195 18.4844 9.07645 18.6599 9.07645 18.8764C9.07645 19.0929 9.25195 19.2684 9.46845 19.2684Z" fill="black"/>
<path d="M9.46845 20.0524C9.68494 20.0524 9.86045 19.8769 9.86045 19.6604C9.86045 19.4439 9.68494 19.2684 9.46845 19.2684C9.25195 19.2684 9.07645 19.4439 9.07645 19.6604C9.07645 19.8769 9.25195 20.0524 9.46845 20.0524Z" fill="black"/>
<path d="M9.46845 21.6204C9.68494 21.6204 9.86045 21.4449 9.86045 21.2284C9.86045 21.0119 9.68494 20.8364 9.46845 20.8364C9.25195 20.8364 9.07645 21.0119 9.07645 21.2284C9.07645 21.4449 9.25195 21.6204 9.46845 21.6204Z" fill="black"/>
<path d="M9.46845 23.1884C9.68494 23.1884 9.86045 23.0129 9.86045 22.7964C9.86045 22.5799 9.68494 22.4044 9.46845 22.4044C9.25195 22.4044 9.07645 22.5799 9.07645 22.7964C9.07645 23.0129 9.25195 23.1884 9.46845 23.1884Z" fill="black"/>
<path d="M9.46845 25.5404C9.68494 25.5404 9.86045 25.3649 9.86045 25.1484C9.86045 24.9319 9.68494 24.7564 9.46845 24.7564C9.25195 24.7564 9.07645 24.9319 9.07645 25.1484C9.07645 25.3649 9.25195 25.5404 9.46845 25.5404Z" fill="black"/>
<path d="M9.46845 27.8925C9.68494 27.8925 9.86045 27.717 9.86045 27.5005C9.86045 27.284 9.68494 27.1085 9.46845 27.1085C9.25195 27.1085 9.07645 27.284 9.07645 27.5005C9.07645 27.717 9.25195 27.8925 9.46845 27.8925Z" fill="black"/>
<path d="M10.2524 5.15644C10.4689 5.15644 10.6444 4.98093 10.6444 4.76444C10.6444 4.54794 10.4689 4.37244 10.2524 4.37244C10.0359 4.37244 9.86044 4.54794 9.86044 4.76444C9.86044 4.98093 10.0359 5.15644 10.2524 5.15644Z" fill="black"/>
<path d="M10.2524 6.72446C10.4689 6.72446 10.6444 6.54896 10.6444 6.33246C10.6444 6.11596 10.4689 5.94046 10.2524 5.94046C10.0359 5.94046 9.86044 6.11596 9.86044 6.33246C9.86044 6.54896 10.0359 6.72446 10.2524 6.72446Z" fill="black"/>
<path d="M10.2524 7.50846C10.4689 7.50846 10.6444 7.33295 10.6444 7.11646C10.6444 6.89996 10.4689 6.72446 10.2524 6.72446C10.0359 6.72446 9.86044 6.89996 9.86044 7.11646C9.86044 7.33295 10.0359 7.50846 10.2524 7.50846Z" fill="black"/>
<path d="M10.2524 8.29245C10.4689 8.29245 10.6444 8.11695 10.6444 7.90045C10.6444 7.68396 10.4689 7.50845 10.2524 7.50845C10.0359 7.50845 9.86044 7.68396 9.86044 7.90045C9.86044 8.11695 10.0359 8.29245 10.2524 8.29245Z" fill="black"/>
<path d="M10.2524 10.6444C10.4689 10.6444 10.6444 10.4689 10.6444 10.2524C10.6444 10.0359 10.4689 9.86044 10.2524 9.86044C10.0359 9.86044 9.86044 10.0359 9.86044 10.2524C9.86044 10.4689 10.0359 10.6444 10.2524 10.6444Z" fill="black"/>
<path d="M10.2524 11.4284C10.4689 11.4284 10.6444 11.2529 10.6444 11.0364C10.6444 10.8199 10.4689 10.6444 10.2524 10.6444C10.0359 10.6444 9.86044 10.8199 9.86044 11.0364C9.86044 11.2529 10.0359 11.4284 10.2524 11.4284Z" fill="black"/>
<path d="M10.2524 12.2124C10.4689 12.2124 10.6444 12.0369 10.6444 11.8204C10.6444 11.6039 10.4689 11.4284 10.2524 11.4284C10.0359 11.4284 9.86044 11.6039 9.86044 11.8204C9.86044 12.0369 10.0359 12.2124 10.2524 12.2124Z" fill="black"/>
<path d="M10.2524 12.9964C10.4689 12.9964 10.6444 12.8209 10.6444 12.6044C10.6444 12.3879 10.4689 12.2124 10.2524 12.2124C10.0359 12.2124 9.86044 12.3879 9.86044 12.6044C9.86044 12.8209 10.0359 12.9964 10.2524 12.9964Z" fill="black"/>
<path d="M10.2524 14.5644C10.4689 14.5644 10.6444 14.3889 10.6444 14.1724C10.6444 13.9559 10.4689 13.7804 10.2524 13.7804C10.0359 13.7804 9.86044 13.9559 9.86044 14.1724C9.86044 14.3889 10.0359 14.5644 10.2524 14.5644Z" fill="black"/>
<path d="M10.2524 17.7004C10.4689 17.7004 10.6444 17.5249 10.6444 17.3084C10.6444 17.0919 10.4689 16.9164 10.2524 16.9164C10.0359 16.9164 9.86044 17.0919 9.86044 17.3084C9.86044 17.5249 10.0359 17.7004 10.2524 17.7004Z" fill="black"/>
<path d="M10.2524 18.4844C10.4689 18.4844 10.6444 18.3089 10.6444 18.0924C10.6444 17.8759 10.4689 17.7004 10.2524 17.7004C10.0359 17.7004 9.86044 17.8759 9.86044 18.0924C9.86044 18.3089 10.0359 18.4844 10.2524 18.4844Z" fill="black"/>
<path d="M10.2524 25.5404C10.4689 25.5404 10.6444 25.3649 10.6444 25.1484C10.6444 24.9319 10.4689 24.7564 10.2524 24.7564C10.0359 24.7564 9.86044 24.9319 9.86044 25.1484C9.86044 25.3649 10.0359 25.5404 10.2524 25.5404Z" fill="black"/>
<path d="M10.2524 27.8925C10.4689 27.8925 10.6444 27.717 10.6444 27.5005C10.6444 27.284 10.4689 27.1085 10.2524 27.1085C10.0359 27.1085 9.86044 27.284 9.86044 27.5005C9.86044 27.717 10.0359 27.8925 10.2524 27.8925Z" fill="black"/>
<path d="M11.0364 3.58844C11.2529 3.58844 11.4284 3.41294 11.4284 3.19644C11.4284 2.97995 11.2529 2.80444 11.0364 2.80444C10.8199 2.80444 10.6444 2.97995 10.6444 3.19644C10.6444 3.41294 10.8199 3.58844 11.0364 3.58844Z" fill="black"/>
<path d="M11.0364 5.15644C11.2529 5.15644 11.4284 4.98093 11.4284 4.76444C11.4284 4.54794 11.2529 4.37244 11.0364 4.37244C10.8199 4.37244 10.6444 4.54794 10.6444 4.76444C10.6444 4.98093 10.8199 5.15644 11.0364 5.15644Z" fill="black"/>
<path d="M11.0364 8.29245C11.2529 8.29245 11.4284 8.11695 11.4284 7.90045C11.4284 7.68396 11.2529 7.50845 11.0364 7.50845C10.8199 7.50845 10.6444 7.68396 10.6444 7.90045C10.6444 8.11695 10.8199 8.29245 11.0364 8.29245Z" fill="black"/>
<path d="M11.0364 9.07645C11.2529 9.07645 11.4284 8.90095 11.4284 8.68445C11.4284 8.46795 11.2529 8.29245 11.0364 8.29245C10.8199 8.29245 10.6444 8.46795 10.6444 8.68445C10.6444 8.90095 10.8199 9.07645 11.0364 9.07645Z" fill="black"/>
<path d="M11.0364 12.2124C11.2529 12.2124 11.4284 12.0369 11.4284 11.8204C11.4284 11.6039 11.2529 11.4284 11.0364 11.4284C10.8199 11.4284 10.6444 11.6039 10.6444 11.8204C10.6444 12.0369 10.8199 12.2124 11.0364 12.2124Z" fill="black"/>
<path d="M11.0364 12.9964C11.2529 12.9964 11.4284 12.8209 11.4284 12.6044C11.4284 12.3879 11.2529 12.2124 11.0364 12.2124C10.8199 12.2124 10.6444 12.3879 10.6444 12.6044C10.6444 12.8209 10.8199 12.9964 11.0364 12.9964Z" fill="black"/>
<path d="M11.0364 13.7804C11.2529 13.7804 11.4284 13.6049 11.4284 13.3884C11.4284 13.1719 11.2529 12.9964 11.0364 12.9964C10.8199 12.9964 10.6444 13.1719 10.6444 13.3884C10.6444 13.6049 10.8199 13.7804 11.0364 13.7804Z" fill="black"/>
<path d="M11.0364 15.3484C11.2529 15.3484 11.4284 15.1729 11.4284 14.9564C11.4284 14.7399 11.2529 14.5644 11.0364 14.5644C10.8199 14.5644 10.6444 14.7399 10.6444 14.9564C10.6444 15.1729 10.8199 15.3484 11.0364 15.3484Z" fill="black"/>
<path d="M11.0364 16.1324C11.2529 16.1324 11.4284 15.9569 11.4284 15.7404C11.4284 15.5239 11.2529 15.3484 11.0364 15.3484C10.8199 15.3484 10.6444 15.5239 10.6444 15.7404C10.6444 15.9569 10.8199 16.1324 11.0364 16.1324Z" fill="black"/>
<path d="M11.0364 16.9164C11.2529 16.9164 11.4284 16.7409 11.4284 16.5244C11.4284 16.3079 11.2529 16.1324 11.0364 16.1324C10.8199 16.1324 10.6444 16.3079 10.6444 16.5244C10.6444 16.7409 10.8199 16.9164 11.0364 16.9164Z" fill="black"/>
<path d="M11.0364 17.7004C11.2529 17.7004 11.4284 17.5249 11.4284 17.3084C11.4284 17.0919 11.2529 16.9164 11.0364 16.9164C10.8199 16.9164 10.6444 17.0919 10.6444 17.3084C10.6444 17.5249 10.8199 17.7004 11.0364 17.7004Z" fill="black"/>
<path d="M11.0364 18.4844C11.2529 18.4844 11.4284 18.3089 11.4284 18.0924C11.4284 17.8759 11.2529 17.7004 11.0364 17.7004C10.8199 17.7004 10.6444 17.8759 10.6444 18.0924C10.6444 18.3089 10.8199 18.4844 11.0364 18.4844Z" fill="black"/>
<path d="M11.0364 19.2684C11.2529 19.2684 11.4284 19.0929 11.4284 18.8764C11.4284 18.6599 11.2529 18.4844 11.0364 18.4844C10.8199 18.4844 10.6444 18.6599 10.6444 18.8764C10.6444 19.0929 10.8199 19.2684 11.0364 19.2684Z" fill="black"/>
<path d="M11.0364 20.0524C11.2529 20.0524 11.4284 19.8769 11.4284 19.6604C11.4284 19.4439 11.2529 19.2684 11.0364 19.2684C10.8199 19.2684 10.6444 19.4439 10.6444 19.6604C10.6444 19.8769 10.8199 20.0524 11.0364 20.0524Z" fill="black"/>
<path d="M11.0364 23.1884C11.2529 23.1884 11.4284 23.0129 11.4284 22.7964C11.4284 22.5799 11.2529 22.4044 11.0364 22.4044C10.8199 22.4044 10.6444 22.5799 10.6444 22.7964C10.6444 23.0129 10.8199 23.1884 11.0364 23.1884Z" fill="black"/>
<path d="M11.0364 25.5404C11.2529 25.5404 11.4284 25.3649 11.4284 25.1484C11.4284 24.9319 11.2529 24.7564 11.0364 24.7564C10.8199 24.7564 10.6444 24.9319 10.6444 25.1484C10.6444 25.3649 10.8199 25.5404 11.0364 25.5404Z" fill="black"/>
<path d="M11.0364 27.8925C11.2529 27.8925 11.4284 27.717 11.4284 27.5005C11.4284 27.284 11.2529 27.1085 11.0364 27.1085C10.8199 27.1085 10.6444 27.284 10.6444 27.5005C10.6444 27.717 10.8199 27.8925 11.0364 27.8925Z" fill="black"/>
<path d="M11.8204 7.50846C12.0369 7.50846 12.2124 7.33295 12.2124 7.11646C12.2124 6.89996 12.0369 6.72446 11.8204 6.72446C11.6039 6.72446 11.4284 6.89996 11.4284 7.11646C11.4284 7.33295 11.6039 7.50846 11.8204 7.50846Z" fill="black"/>
<path d="M11.8204 9.07645C12.0369 9.07645 12.2124 8.90095 12.2124 8.68445C12.2124 8.46795 12.0369 8.29245 11.8204 8.29245C11.6039 8.29245 11.4284 8.46795 11.4284 8.68445C11.4284 8.90095 11.6039 9.07645 11.8204 9.07645Z" fill="black"/>
<path d="M11.8204 10.6444C12.0369 10.6444 12.2124 10.4689 12.2124 10.2524C12.2124 10.0359 12.0369 9.86044 11.8204 9.86044C11.6039 9.86044 11.4284 10.0359 11.4284 10.2524C11.4284 10.4689 11.6039 10.6444 11.8204 10.6444Z" fill="black"/>
<path d="M11.8204 11.4284C12.0369 11.4284 12.2124 11.2529 12.2124 11.0364C12.2124 10.8199 12.0369 10.6444 11.8204 10.6444C11.6039 10.6444 11.4284 10.8199 11.4284 11.0364C11.4284 11.2529 11.6039 11.4284 11.8204 11.4284Z" fill="black"/>
<path d="M11.8204 20.0524C12.0369 20.0524 12.2124 19.8769 12.2124 19.6604C12.2124 19.4439 12.0369 19.2684 11.8204 19.2684C11.6039 19.2684 11.4284 19.4439 11.4284 19.6604C11.4284 19.8769 11.6039 20.0524 11.8204 20.0524Z" fill="black"/>
<path d="M11.8204 20.8364C12.0369 20.8364 12.2124 20.6609 12.2124 20.4444C12.2124 20.2279 12.0369 20.0524 11.8204 20.0524C11.6039 20.0524 11.4284 20.2279 11.4284 20.4444C11.4284 20.6609 11.6039 20.8364 11.8204 20.8364Z" fill="black"/>
<path d="M11.8204 22.4044C12.0369 22.4044 12.2124 22.2289 12.2124 22.0124C12.2124 21.7959 12.0369 21.6204 11.8204 21.6204C11.6039 21.6204 11.4284 21.7959 11.4284 22.0124C11.4284 22.2289 11.6039 22.4044 11.8204 22.4044Z" fill="black"/>
<path d="M11.8204 23.1884C12.0369 23.1884 12.2124 23.0129 12.2124 22.7964C12.2124 22.5799 12.0369 22.4044 11.8204 22.4044C11.6039 22.4044 11.4284 22.5799 11.4284 22.7964C11.4284 23.0129 11.6039 23.1884 11.8204 23.1884Z" fill="black"/>
<path d="M11.8204 24.7565C12.0369 24.7565 12.2124 24.581 12.2124 24.3645C12.2124 24.148 12.0369 23.9725 11.8204 23.9725C11.6039 23.9725 11.4284 24.148 11.4284 24.3645C11.4284 24.581 11.6039 24.7565 11.8204 24.7565Z" fill="black"/>
<path d="M11.8204 27.8925C12.0369 27.8925 12.2124 27.717 12.2124 27.5005C12.2124 27.284 12.0369 27.1085 11.8204 27.1085C11.6039 27.1085 11.4284 27.284 11.4284 27.5005C11.4284 27.717 11.6039 27.8925 11.8204 27.8925Z" fill="black"/>
<path d="M12.6044 4.37244C12.8209 4.37244 12.9964 4.19694 12.9964 3.98044C12.9964 3.76394 12.8209 3.58844 12.6044 3.58844C12.3879 3.58844 12.2124 3.76394 12.2124 3.98044C12.2124 4.19694 12.3879 4.37244 12.6044 4.37244Z" fill="black"/>
<path d="M12.6044 6.72446C12.8209 6.72446 12.9964 6.54896 12.9964 6.33246C12.9964 6.11596 12.8209 5.94046 12.6044 5.94046C12.3879 5.94046 12.2124 6.11596 12.2124 6.33246C12.2124 6.54896 12.3879 6.72446 12.6044 6.72446Z" fill="black"/>
<path d="M12.6044 8.29245C12.8209 8.29245 12.9964 8.11695 12.9964 7.90045C12.9964 7.68396 12.8209 7.50845 12.6044 7.50845C12.3879 7.50845 12.2124 7.68396 12.2124 7.90045C12.2124 8.11695 12.3879 8.29245 12.6044 8.29245Z" fill="black"/>
<path d="M12.6044 9.86045C12.8209 9.86045 12.9964 9.68494 12.9964 9.46845C12.9964 9.25195 12.8209 9.07645 12.6044 9.07645C12.3879 9.07645 12.2124 9.25195 12.2124 9.46845C12.2124 9.68494 12.3879 9.86045 12.6044 9.86045Z" fill="black"/>
<path d="M12.6044 10.6444C12.8209 10.6444 12.9964 10.4689 12.9964 10.2524C12.9964 10.0359 12.8209 9.86044 12.6044 9.86044C12.3879 9.86044 12.2124 10.0359 12.2124 10.2524C12.2124 10.4689 12.3879 10.6444 12.6044 10.6444Z" fill="black"/>
<path d="M12.6044 21.6204C12.8209 21.6204 12.9964 21.4449 12.9964 21.2284C12.9964 21.0119 12.8209 20.8364 12.6044 20.8364C12.3879 20.8364 12.2124 21.0119 12.2124 21.2284C12.2124 21.4449 12.3879 21.6204 12.6044 21.6204Z" fill="black"/>
<path d="M12.6044 23.1884C12.8209 23.1884 12.9964 23.0129 12.9964 22.7964C12.9964 22.5799 12.8209 22.4044 12.6044 22.4044C12.3879 22.4044 12.2124 22.5799 12.2124 22.7964C12.2124 23.0129 12.3879 23.1884 12.6044 23.1884Z" fill="black"/>
<path d="M12.6044 23.9724C12.8209 23.9724 12.9964 23.7969 12.9964 23.5804C12.9964 23.3639 12.8209 23.1884 12.6044 23.1884C12.3879 23.1884 12.2124 23.3639 12.2124 23.5804C12.2124 23.7969 12.3879 23.9724 12.6044 23.9724Z" fill="black"/>
<path d="M12.6044 24.7565C12.8209 24.7565 12.9964 24.581 12.9964 24.3645C12.9964 24.148 12.8209 23.9725 12.6044 23.9725C12.3879 23.9725 12.2124 24.148 12.2124 24.3645C12.2124 24.581 12.3879 24.7565 12.6044 24.7565Z" fill="black"/>
<path d="M12.6044 27.8925C12.8209 27.8925 12.9964 27.717 12.9964 27.5005C12.9964 27.284 12.8209 27.1085 12.6044 27.1085C12.3879 27.1085 12.2124 27.284 12.2124 27.5005C12.2124 27.717 12.3879 27.8925 12.6044 27.8925Z" fill="black"/>
<path d="M13.3884 2.80445C13.6049 2.80445 13.7804 2.62894 13.7804 2.41245C13.7804 2.19595 13.6049 2.02045 13.3884 2.02045C13.1719 2.02045 12.9964 2.19595 12.9964 2.41245C12.9964 2.62894 13.1719 2.80445 13.3884 2.80445Z" fill="black"/>
<path d="M13.3884 4.37244C13.6049 4.37244 13.7804 4.19694 13.7804 3.98044C13.7804 3.76394 13.6049 3.58844 13.3884 3.58844C13.1719 3.58844 12.9964 3.76394 12.9964 3.98044C12.9964 4.19694 13.1719 4.37244 13.3884 4.37244Z" fill="black"/>
<path d="M13.3884 6.72446C13.6049 6.72446 13.7804 6.54896 13.7804 6.33246C13.7804 6.11596 13.6049 5.94046 13.3884 5.94046C13.1719 5.94046 12.9964 6.11596 12.9964 6.33246C12.9964 6.54896 13.1719 6.72446 13.3884 6.72446Z" fill="black"/>
<path d="M13.3884 7.50846C13.6049 7.50846 13.7804 7.33295 13.7804 7.11646C13.7804 6.89996 13.6049 6.72446 13.3884 6.72446C13.1719 6.72446 12.9964 6.89996 12.9964 7.11646C12.9964 7.33295 13.1719 7.50846 13.3884 7.50846Z" fill="black"/>
<path d="M13.3884 9.07645C13.6049 9.07645 13.7804 8.90095 13.7804 8.68445C13.7804 8.46795 13.6049 8.29245 13.3884 8.29245C13.1719 8.29245 12.9964 8.46795 12.9964 8.68445C12.9964 8.90095 13.1719 9.07645 13.3884 9.07645Z" fill="black"/>
<path d="M13.3884 9.86045C13.6049 9.86045 13.7804 9.68494 13.7804 9.46845C13.7804 9.25195 13.6049 9.07645 13.3884 9.07645C13.1719 9.07645 12.9964 9.25195 12.9964 9.46845C12.9964 9.68494 13.1719 9.86045 13.3884 9.86045Z" fill="black"/>
<path d="M13.3884 19.2684C13.6049 19.2684 13.7804 19.0929 13.7804 18.8764C13.7804 18.6599 13.6049 18.4844 13.3884 18.4844C13.1719 18.4844 12.9964 18.6599 12.9964 18.8764C12.9964 19.0929 13.1719 19.2684 13.3884 19.2684Z" fill="black"/>
<path d="M13.3884 20.8364C13.6049 20.8364 13.7804 20.6609 13.7804 20.4444C13.7804 20.2279 13.6049 20.0524 13.3884 20.0524C13.1719 20.0524 12.9964 20.2279 12.9964 20.4444C12.9964 20.6609 13.1719 20.8364 13.3884 20.8364Z" fill="black"/>
<path d="M13.3884 22.4044C13.6049 22.4044 13.7804 22.2289 13.7804 22.0124C13.7804 21.7959 13.6049 21.6204 13.3884 21.6204C13.1719 21.6204 12.9964 21.7959 12.9964 22.0124C12.9964 22.2289 13.1719 22.4044 13.3884 22.4044Z" fill="black"/>
<path d="M13.3884 23.1884C13.6049 23.1884 13.7804 23.0129 13.7804 22.7964C13.7804 22.5799 13.6049 22.4044 13.3884 22.4044C13.1719 22.4044 12.9964 22.5799 12.9964 22.7964C12.9964 23.0129 13.1719 23.1884 13.3884 23.1884Z" fill="black"/>
<path d="M13.3884 23.9724C13.6049 23.9724 13.7804 23.7969 13.7804 23.5804C13.7804 23.3639 13.6049 23.1884 13.3884 23.1884C13.1719 23.1884 12.9964 23.3639 12.9964 23.5804C12.9964 23.7969 13.1719 23.9724 13.3884 23.9724Z" fill="black"/>
<path d="M13.3884 24.7565C13.6049 24.7565 13.7804 24.581 13.7804 24.3645C13.7804 24.148 13.6049 23.9725 13.3884 23.9725C13.1719 23.9725 12.9964 24.148 12.9964 24.3645C12.9964 24.581 13.1719 24.7565 13.3884 24.7565Z" fill="black"/>
<path d="M13.3884 27.1085C13.6049 27.1085 13.7804 26.933 13.7804 26.7165C13.7804 26.5 13.6049 26.3245 13.3884 26.3245C13.1719 26.3245 12.9964 26.5 12.9964 26.7165C12.9964 26.933 13.1719 27.1085 13.3884 27.1085Z" fill="black"/>
<path d="M14.1724 2.80445C14.3889 2.80445 14.5644 2.62894 14.5644 2.41245C14.5644 2.19595 14.3889 2.02045 14.1724 2.02045C13.9559 2.02045 13.7804 2.19595 13.7804 2.41245C13.7804 2.62894 13.9559 2.80445 14.1724 2.80445Z" fill="black"/>
<path d="M14.1724 3.58844C14.3889 3.58844 14.5644 3.41294 14.5644 3.19644C14.5644 2.97995 14.3889 2.80444 14.1724 2.80444C13.9559 2.80444 13.7804 2.97995 13.7804 3.19644C13.7804 3.41294 13.9559 3.58844 14.1724 3.58844Z" fill="black"/>
<path d="M14.1724 5.15644C14.3889 5.15644 14.5644 4.98093 14.5644 4.76444C14.5644 4.54794 14.3889 4.37244 14.1724 4.37244C13.9559 4.37244 13.7804 4.54794 13.7804 4.76444C13.7804 4.98093 13.9559 5.15644 14.1724 5.15644Z" fill="black"/>
<path d="M14.1724 6.72446C14.3889 6.72446 14.5644 6.54896 14.5644 6.33246C14.5644 6.11596 14.3889 5.94046 14.1724 5.94046C13.9559 5.94046 13.7804 6.11596 13.7804 6.33246C13.7804 6.54896 13.9559 6.72446 14.1724 6.72446Z" fill="black"/>
<path d="M14.1724 9.07645C14.3889 9.07645 14.5644 8.90095 14.5644 8.68445C14.5644 8.46795 14.3889 8.29245 14.1724 8.29245C13.9559 8.29245 13.7804 8.46795 13.7804 8.68445C13.7804 8.90095 13.9559 9.07645 14.1724 9.07645Z" fill="black"/>
<path d="M14.1724 9.86045C14.3889 9.86045 14.5644 9.68494 14.5644 9.46845C14.5644 9.25195 14.3889 9.07645 14.1724 9.07645C13.9559 9.07645 13.7804 9.25195 13.7804 9.46845C13.7804 9.68494 13.9559 9.86045 14.1724 9.86045Z" fill="black"/>
<path d="M14.1724 10.6444C14.3889 10.6444 14.5644 10.4689 14.5644 10.2524C14.5644 10.0359 14.3889 9.86044 14.1724 9.86044C13.9559 9.86044 13.7804 10.0359 13.7804 10.2524C13.7804 10.4689 13.9559 10.6444 14.1724 10.6444Z" fill="black"/>
<path d="M14.1724 19.2684C14.3889 19.2684 14.5644 19.0929 14.5644 18.8764C14.5644 18.6599 14.3889 18.4844 14.1724 18.4844C13.9559 18.4844 13.7804 18.6599 13.7804 18.8764C13.7804 19.0929 13.9559 19.2684 14.1724 19.2684Z" fill="black"/>
<path d="M14.1724 20.0524C14.3889 20.0524 14.5644 19.8769 14.5644 19.6604C14.5644 19.4439 14.3889 19.2684 14.1724 19.2684C13.9559 19.2684 13.7804 19.4439 13.7804 19.6604C13.7804 19.8769 13.9559 20.0524 14.1724 20.0524Z" fill="black"/>
<path d="M14.1724 20.8364C14.3889 20.8364 14.5644 20.6609 14.5644 20.4444C14.5644 20.2279 14.3889 20.0524 14.1724 20.0524C13.9559 20.0524 13.7804 20.2279 13.7804 20.4444C13.7804 20.6609 13.9559 20.8364 14.1724 20.8364Z" fill="black"/>
<path d="M14.1724 21.6204C14.3889 21.6204 14.5644 21.4449 14.5644 21.2284C14.5644 21.0119 14.3889 20.8364 14.1724 20.8364C13.9559 20.8364 13.7804 21.0119 13.7804 21.2284C13.7804 21.4449 13.9559 21.6204 14.1724 21.6204Z" fill="black"/>
<path d="M14.1724 23.1884C14.3889 23.1884 14.5644 23.0129 14.5644 22.7964C14.5644 22.5799 14.3889 22.4044 14.1724 22.4044C13.9559 22.4044 13.7804 22.5799 13.7804 22.7964C13.7804 23.0129 13.9559 23.1884 14.1724 23.1884Z" fill="black"/>
<path d="M14.1724 23.9724C14.3889 23.9724 14.5644 23.7969 14.5644 23.5804C14.5644 23.3639 14.3889 23.1884 14.1724 23.1884C13.9559 23.1884 13.7804 23.3639 13.7804 23.5804C13.7804 23.7969 13.9559 23.9724 14.1724 23.9724Z" fill="black"/>
<path d="M14.9564 2.80445C15.1729 2.80445 15.3484 2.62894 15.3484 2.41245C15.3484 2.19595 15.1729 2.02045 14.9564 2.02045C14.7399 2.02045 14.5644 2.19595 14.5644 2.41245C14.5644 2.62894 14.7399 2.80445 14.9564 2.80445Z" fill="black"/>
<path d="M14.9564 7.50846C15.1729 7.50846 15.3484 7.33295 15.3484 7.11646C15.3484 6.89996 15.1729 6.72446 14.9564 6.72446C14.7399 6.72446 14.5644 6.89996 14.5644 7.11646C14.5644 7.33295 14.7399 7.50846 14.9564 7.50846Z" fill="black"/>
<path d="M14.9564 10.6444C15.1729 10.6444 15.3484 10.4689 15.3484 10.2524C15.3484 10.0359 15.1729 9.86044 14.9564 9.86044C14.7399 9.86044 14.5644 10.0359 14.5644 10.2524C14.5644 10.4689 14.7399 10.6444 14.9564 10.6444Z" fill="black"/>
<path d="M14.9564 11.4284C15.1729 11.4284 15.3484 11.2529 15.3484 11.0364C15.3484 10.8199 15.1729 10.6444 14.9564 10.6444C14.7399 10.6444 14.5644 10.8199 14.5644 11.0364C14.5644 11.2529 14.7399 11.4284 14.9564 11.4284Z" fill="black"/>
<path d="M14.9564 19.2684C15.1729 19.2684 15.3484 19.0929 15.3484 18.8764C15.3484 18.6599 15.1729 18.4844 14.9564 18.4844C14.7399 18.4844 14.5644 18.6599 14.5644 18.8764C14.5644 19.0929 14.7399 19.2684 14.9564 19.2684Z" fill="black"/>
<path d="M14.9564 20.8364C15.1729 20.8364 15.3484 20.6609 15.3484 20.4444C15.3484 20.2279 15.1729 20.0524 14.9564 20.0524C14.7399 20.0524 14.5644 20.2279 14.5644 20.4444C14.5644 20.6609 14.7399 20.8364 14.9564 20.8364Z" fill="black"/>
<path d="M14.9564 23.1884C15.1729 23.1884 15.3484 23.0129 15.3484 22.7964C15.3484 22.5799 15.1729 22.4044 14.9564 22.4044C14.7399 22.4044 14.5644 22.5799 14.5644 22.7964C14.5644 23.0129 14.7399 23.1884 14.9564 23.1884Z" fill="black"/>
<path d="M14.9564 24.7565C15.1729 24.7565 15.3484 24.581 15.3484 24.3645C15.3484 24.148 15.1729 23.9725 14.9564 23.9725C14.7399 23.9725 14.5644 24.148 14.5644 24.3645C14.5644 24.581 14.7399 24.7565 14.9564 24.7565Z" fill="black"/>
<path d="M14.9564 25.5404C15.1729 25.5404 15.3484 25.3649 15.3484 25.1484C15.3484 24.9319 15.1729 24.7564 14.9564 24.7564C14.7399 24.7564 14.5644 24.9319 14.5644 25.1484C14.5644 25.3649 14.7399 25.5404 14.9564 25.5404Z" fill="black"/>
<path d="M15.7404 4.37244C15.9569 4.37244 16.1324 4.19694 16.1324 3.98044C16.1324 3.76394 15.9569 3.58844 15.7404 3.58844C15.5239 3.58844 15.3484 3.76394 15.3484 3.98044C15.3484 4.19694 15.5239 4.37244 15.7404 4.37244Z" fill="black"/>
<path d="M15.7404 5.15644C15.9569 5.15644 16.1324 4.98093 16.1324 4.76444C16.1324 4.54794 15.9569 4.37244 15.7404 4.37244C15.5239 4.37244 15.3484 4.54794 15.3484 4.76444C15.3484 4.98093 15.5239 5.15644 15.7404 5.15644Z" fill="black"/>
<path d="M15.7404 5.94043C15.9569 5.94043 16.1324 5.76493 16.1324 5.54843C16.1324 5.33194 15.9569 5.15643 15.7404 5.15643C15.5239 5.15643 15.3484 5.33194 15.3484 5.54843C15.3484 5.76493 15.5239 5.94043 15.7404 5.94043Z" fill="black"/>
<path d="M15.7404 8.29245C15.9569 8.29245 16.1324 8.11695 16.1324 7.90045C16.1324 7.68396 15.9569 7.50845 15.7404 7.50845C15.5239 7.50845 15.3484 7.68396 15.3484 7.90045C15.3484 8.11695 15.5239 8.29245 15.7404 8.29245Z" fill="black"/>
<path d="M15.7404 9.07645C15.9569 9.07645 16.1324 8.90095 16.1324 8.68445C16.1324 8.46795 15.9569 8.29245 15.7404 8.29245C15.5239 8.29245 15.3484 8.46795 15.3484 8.68445C15.3484 8.90095 15.5239 9.07645 15.7404 9.07645Z" fill="black"/>
<path d="M15.7404 10.6444C15.9569 10.6444 16.1324 10.4689 16.1324 10.2524C16.1324 10.0359 15.9569 9.86044 15.7404 9.86044C15.5239 9.86044 15.3484 10.0359 15.3484 10.2524C15.3484 10.4689 15.5239 10.6444 15.7404 10.6444Z" fill="black"/>
<path d="M15.7404 19.2684C15.9569 19.2684 16.1324 19.0929 16.1324 18.8764C16.1324 18.6599 15.9569 18.4844 15.7404 18.4844C15.5239 18.4844 15.3484 18.6599 15.3484 18.8764C15.3484 19.0929 15.5239 19.2684 15.7404 19.2684Z" fill="black"/>
<path d="M15.7404 20.8364C15.9569 20.8364 16.1324 20.6609 16.1324 20.4444C16.1324 20.2279 15.9569 20.0524 15.7404 20.0524C15.5239 20.0524 15.3484 20.2279 15.3484 20.4444C15.3484 20.6609 15.5239 20.8364 15.7404 20.8364Z" fill="black"/>
<path d="M15.7404 23.9724C15.9569 23.9724 16.1324 23.7969 16.1324 23.5804C16.1324 23.3639 15.9569 23.1884 15.7404 23.1884C15.5239 23.1884 15.3484 23.3639 15.3484 23.5804C15.3484 23.7969 15.5239 23.9724 15.7404 23.9724Z" fill="black"/>
<path d="M15.7404 26.3245C15.9569 26.3245 16.1324 26.149 16.1324 25.9325C16.1324 25.716 15.9569 25.5405 15.7404 25.5405C15.5239 25.5405 15.3484 25.716 15.3484 25.9325C15.3484 26.149 15.5239 26.3245 15.7404 26.3245Z" fill="black"/>
<path d="M16.5244 5.94043C16.7409 5.94043 16.9164 5.76493 16.9164 5.54843C16.9164 5.33194 16.7409 5.15643 16.5244 5.15643C16.3079 5.15643 16.1324 5.33194 16.1324 5.54843C16.1324 5.76493 16.3079 5.94043 16.5244 5.94043Z" fill="black"/>
<path d="M16.5244 6.72446C16.7409 6.72446 16.9164 6.54896 16.9164 6.33246C16.9164 6.11596 16.7409 5.94046 16.5244 5.94046C16.3079 5.94046 16.1324 6.11596 16.1324 6.33246C16.1324 6.54896 16.3079 6.72446 16.5244 6.72446Z" fill="black"/>
<path d="M16.5244 7.50846C16.7409 7.50846 16.9164 7.33295 16.9164 7.11646C16.9164 6.89996 16.7409 6.72446 16.5244 6.72446C16.3079 6.72446 16.1324 6.89996 16.1324 7.11646C16.1324 7.33295 16.3079 7.50846 16.5244 7.50846Z" fill="black"/>
<path d="M16.5244 9.07645C16.7409 9.07645 16.9164 8.90095 16.9164 8.68445C16.9164 8.46795 16.7409 8.29245 16.5244 8.29245C16.3079 8.29245 16.1324 8.46795 16.1324 8.68445C16.1324 8.90095 16.3079 9.07645 16.5244 9.07645Z" fill="black"/>
<path d="M16.5244 9.86045C16.7409 9.86045 16.9164 9.68494 16.9164 9.46845C16.9164 9.25195 16.7409 9.07645 16.5244 9.07645C16.3079 9.07645 16.1324 9.25195 16.1324 9.46845C16.1324 9.68494 16.3079 9.86045 16.5244 9.86045Z" fill="black"/>
<path d="M16.5244 10.6444C16.7409 10.6444 16.9164 10.4689 16.9164 10.2524C16.9164 10.0359 16.7409 9.86044 16.5244 9.86044C16.3079 9.86044 16.1324 10.0359 16.1324 10.2524C16.1324 10.4689 16.3079 10.6444 16.5244 10.6444Z" fill="black"/>
<path d="M16.5244 19.2684C16.7409 19.2684 16.9164 19.0929 16.9164 18.8764C16.9164 18.6599 16.7409 18.4844 16.5244 18.4844C16.3079 18.4844 16.1324 18.6599 16.1324 18.8764C16.1324 19.0929 16.3079 19.2684 16.5244 19.2684Z" fill="black"/>
<path d="M16.5244 20.0524C16.7409 20.0524 16.9164 19.8769 16.9164 19.6604C16.9164 19.4439 16.7409 19.2684 16.5244 19.2684C16.3079 19.2684 16.1324 19.4439 16.1324 19.6604C16.1324 19.8769 16.3079 20.0524 16.5244 20.0524Z" fill="black"/>
<path d="M16.5244 22.4044C16.7409 22.4044 16.9164 22.2289 16.9164 22.0124C16.9164 21.7959 16.7409 21.6204 16.5244 21.6204C16.3079 21.6204 16.1324 21.7959 16.1324 22.0124C16.1324 22.2289 16.3079 22.4044 16.5244 22.4044Z" fill="black"/>
<path d="M16.5244 23.9724C16.7409 23.9724 16.9164 23.7969 16.9164 23.5804C16.9164 23.3639 16.7409 23.1884 16.5244 23.1884C16.3079 23.1884 16.1324 23.3639 16.1324 23.5804C16.1324 23.7969 16.3079 23.9724 16.5244 23.9724Z" fill="black"/>
<path d="M16.5244 24.7565C16.7409 24.7565 16.9164 24.581 16.9164 24.3645C16.9164 24.148 16.7409 23.9725 16.5244 23.9725C16.3079 23.9725 16.1324 24.148 16.1324 24.3645C16.1324 24.581 16.3079 24.7565 16.5244 24.7565Z" fill="black"/>
<path d="M16.5244 26.3245C16.7409 26.3245 16.9164 26.149 16.9164 25.9325C16.9164 25.716 16.7409 25.5405 16.5244 25.5405C16.3079 25.5405 16.1324 25.716 16.1324 25.9325C16.1324 26.149 16.3079 26.3245 16.5244 26.3245Z" fill="black"/>
<path d="M16.5244 27.8925C16.7409 27.8925 16.9164 27.717 16.9164 27.5005C16.9164 27.284 16.7409 27.1085 16.5244 27.1085C16.3079 27.1085 16.1324 27.284 16.1324 27.5005C16.1324 27.717 16.3079 27.8925 16.5244 27.8925Z" fill="black"/>
<path d="M17.3084 2.80445C17.5249 2.80445 17.7004 2.62894 17.7004 2.41245C17.7004 2.19595 17.5249 2.02045 17.3084 2.02045C17.0919 2.02045 16.9164 2.19595 16.9164 2.41245C16.9164 2.62894 17.0919 2.80445 17.3084 2.80445Z" fill="black"/>
<path d="M17.3084 4.37244C17.5249 4.37244 17.7004 4.19694 17.7004 3.98044C17.7004 3.76394 17.5249 3.58844 17.3084 3.58844C17.0919 3.58844 16.9164 3.76394 16.9164 3.98044C16.9164 4.19694 17.0919 4.37244 17.3084 4.37244Z" fill="black"/>
<path d="M17.3084 5.15644C17.5249 5.15644 17.7004 4.98093 17.7004 4.76444C17.7004 4.54794 17.5249 4.37244 17.3084 4.37244C17.0919 4.37244 16.9164 4.54794 16.9164 4.76444C16.9164 4.98093 17.0919 5.15644 17.3084 5.15644Z" fill="black"/>
<path d="M17.3084 5.94043C17.5249 5.94043 17.7004 5.76493 17.7004 5.54843C17.7004 5.33194 17.5249 5.15643 17.3084 5.15643C17.0919 5.15643 16.9164 5.33194 16.9164 5.54843C16.9164 5.76493 17.0919 5.94043 17.3084 5.94043Z" fill="black"/>
<path d="M17.3084 8.29245C17.5249 8.29245 17.7004 8.11695 17.7004 7.90045C17.7004 7.68396 17.5249 7.50845 17.3084 7.50845C17.0919 7.50845 16.9164 7.68396 16.9164 7.90045C16.9164 8.11695 17.0919 8.29245 17.3084 8.29245Z" fill="black"/>
<path d="M17.3084 19.2684C17.5249 19.2684 17.7004 19.0929 17.7004 18.8764C17.7004 18.6599 17.5249 18.4844 17.3084 18.4844C17.0919 18.4844 16.9164 18.6599 16.9164 18.8764C16.9164 19.0929 17.0919 19.2684 17.3084 19.2684Z" fill="black"/>
<path d="M17.3084 20.0524C17.5249 20.0524 17.7004 19.8769 17.7004 19.6604C17.7004 19.4439 17.5249 19.2684 17.3084 19.2684C17.0919 19.2684 16.9164 19.4439 16.9164 19.6604C16.9164 19.8769 17.0919 20.0524 17.3084 20.0524Z" fill="black"/>
<path d="M17.3084 23.1884C17.5249 23.1884 17.7004 23.0129 17.7004 22.7964C17.7004 22.5799 17.5249 22.4044 17.3084 22.4044C17.0919 22.4044 16.9164 22.5799 16.9164 22.7964C16.9164 23.0129 17.0919 23.1884 17.3084 23.1884Z" fill="black"/>
<path d="M17.3084 27.8925C17.5249 27.8925 17.7004 27.717 17.7004 27.5005C17.7004 27.284 17.5249 27.1085 17.3084 27.1085C17.0919 27.1085 16.9164 27.284 16.9164 27.5005C16.9164 27.717 17.0919 27.8925 17.3084 27.8925Z" fill="black"/>
<path d="M18.0924 3.58844C18.3089 3.58844 18.4844 3.41294 18.4844 3.19644C18.4844 2.97995 18.3089 2.80444 18.0924 2.80444C17.8759 2.80444 17.7004 2.97995 17.7004 3.19644C17.7004 3.41294 17.8759 3.58844 18.0924 3.58844Z" fill="black"/>
<path d="M18.0924 5.94043C18.3089 5.94043 18.4844 5.76493 18.4844 5.54843C18.4844 5.33194 18.3089 5.15643 18.0924 5.15643C17.8759 5.15643 17.7004 5.33194 17.7004 5.54843C17.7004 5.76493 17.8759 5.94043 18.0924 5.94043Z" fill="black"/>
<path d="M18.0924 7.50846C18.3089 7.50846 18.4844 7.33295 18.4844 7.11646C18.4844 6.89996 18.3089 6.72446 18.0924 6.72446C17.8759 6.72446 17.7004 6.89996 17.7004 7.11646C17.7004 7.33295 17.8759 7.50846 18.0924 7.50846Z" fill="black"/>
<path d="M18.0924 8.29245C18.3089 8.29245 18.4844 8.11695 18.4844 7.90045C18.4844 7.68396 18.3089 7.50845 18.0924 7.50845C17.8759 7.50845 17.7004 7.68396 17.7004 7.90045C17.7004 8.11695 17.8759 8.29245 18.0924 8.29245Z" fill="black"/>
<path d="M18.0924 9.07645C18.3089 9.07645 18.4844 8.90095 18.4844 8.68445C18.4844 8.46795 18.3089 8.29245 18.0924 8.29245C17.8759 8.29245 17.7004 8.46795 17.7004 8.68445C17.7004 8.90095 17.8759 9.07645 18.0924 9.07645Z" fill="black"/>
<path d="M18.0924 9.86045C18.3089 9.86045 18.4844 9.68494 18.4844 9.46845C18.4844 9.25195 18.3089 9.07645 18.0924 9.07645C17.8759 9.07645 17.7004 9.25195 17.7004 9.46845C17.7004 9.68494 17.8759 9.86045 18.0924 9.86045Z" fill="black"/>
<path d="M18.0924 10.6444C18.3089 10.6444 18.4844 10.4689 18.4844 10.2524C18.4844 10.0359 18.3089 9.86044 18.0924 9.86044C17.8759 9.86044 17.7004 10.0359 17.7004 10.2524C17.7004 10.4689 17.8759 10.6444 18.0924 10.6444Z" fill="black"/>
<path d="M18.0924 11.4284C18.3089 11.4284 18.4844 11.2529 18.4844 11.0364C18.4844 10.8199 18.3089 10.6444 18.0924 10.6444C17.8759 10.6444 17.7004 10.8199 17.7004 11.0364C17.7004 11.2529 17.8759 11.4284 18.0924 11.4284Z" fill="black"/>
<path d="M18.0924 19.2684C18.3089 19.2684 18.4844 19.0929 18.4844 18.8764C18.4844 18.6599 18.3089 18.4844 18.0924 18.4844C17.8759 18.4844 17.7004 18.6599 17.7004 18.8764C17.7004 19.0929 17.8759 19.2684 18.0924 19.2684Z" fill="black"/>
<path d="M18.0924 20.0524C18.3089 20.0524 18.4844 19.8769 18.4844 19.6604C18.4844 19.4439 18.3089 19.2684 18.0924 19.2684C17.8759 19.2684 17.7004 19.4439 17.7004 19.6604C17.7004 19.8769 17.8759 20.0524 18.0924 20.0524Z" fill="black"/>
<path d="M18.0924 20.8364C18.3089 20.8364 18.4844 20.6609 18.4844 20.4444C18.4844 20.2279 18.3089 20.0524 18.0924 20.0524C17.8759 20.0524 17.7004 20.2279 17.7004 20.4444C17.7004 20.6609 17.8759 20.8364 18.0924 20.8364Z" fill="black"/>
<path d="M18.0924 22.4044C18.3089 22.4044 18.4844 22.2289 18.4844 22.0124C18.4844 21.7959 18.3089 21.6204 18.0924 21.6204C17.8759 21.6204 17.7004 21.7959 17.7004 22.0124C17.7004 22.2289 17.8759 22.4044 18.0924 22.4044Z" fill="black"/>
<path d="M18.0924 23.1884C18.3089 23.1884 18.4844 23.0129 18.4844 22.7964C18.4844 22.5799 18.3089 22.4044 18.0924 22.4044C17.8759 22.4044 17.7004 22.5799 17.7004 22.7964C17.7004 23.0129 17.8759 23.1884 18.0924 23.1884Z" fill="black"/>
<path d="M18.0924 27.1085C18.3089 27.1085 18.4844 26.933 18.4844 26.7165C18.4844 26.5 18.3089 26.3245 18.0924 26.3245C17.8759 26.3245 17.7004 26.5 17.7004 26.7165C17.7004 26.933 17.8759 27.1085 18.0924 27.1085Z" fill="black"/>
<path d="M18.0924 27.8925C18.3089 27.8925 18.4844 27.717 18.4844 27.5005C18.4844 27.284 18.3089 27.1085 18.0924 27.1085C17.8759 27.1085 17.7004 27.284 17.7004 27.5005C17.7004 27.717 17.8759 27.8925 18.0924 27.8925Z" fill="black"/>
<path d="M18.8764 3.58844C19.0929 3.58844 19.2684 3.41294 19.2684 3.19644C19.2684 2.97995 19.0929 2.80444 18.8764 2.80444C18.6599 2.80444 18.4844 2.97995 18.4844 3.19644C18.4844 3.41294 18.6599 3.58844 18.8764 3.58844Z" fill="black"/>
<path d="M18.8764 4.37244C19.0929 4.37244 19.2684 4.19694 19.2684 3.98044C19.2684 3.76394 19.0929 3.58844 18.8764 3.58844C18.6599 3.58844 18.4844 3.76394 18.4844 3.98044C18.4844 4.19694 18.6599 4.37244 18.8764 4.37244Z" fill="black"/>
<path d="M18.8764 6.72446C19.0929 6.72446 19.2684 6.54896 19.2684 6.33246C19.2684 6.11596 19.0929 5.94046 18.8764 5.94046C18.6599 5.94046 18.4844 6.11596 18.4844 6.33246C18.4844 6.54896 18.6599 6.72446 18.8764 6.72446Z" fill="black"/>
<path d="M18.8764 9.86045C19.0929 9.86045 19.2684 9.68494 19.2684 9.46845C19.2684 9.25195 19.0929 9.07645 18.8764 9.07645C18.6599 9.07645 18.4844 9.25195 18.4844 9.46845C18.4844 9.68494 18.6599 9.86045 18.8764 9.86045Z" fill="black"/>
<path d="M18.8764 10.6444C19.0929 10.6444 19.2684 10.4689 19.2684 10.2524C19.2684 10.0359 19.0929 9.86044 18.8764 9.86044C18.6599 9.86044 18.4844 10.0359 18.4844 10.2524C18.4844 10.4689 18.6599 10.6444 18.8764 10.6444Z" fill="black"/>
<path d="M18.8764 12.9964C19.0929 12.9964 19.2684 12.8209 19.2684 12.6044C19.2684 12.3879 19.0929 12.2124 18.8764 12.2124C18.6599 12.2124 18.4844 12.3879 18.4844 12.6044C18.4844 12.8209 18.6599 12.9964 18.8764 12.9964Z" fill="black"/>
<path d="M18.8764 14.5644C19.0929 14.5644 19.2684 14.3889 19.2684 14.1724C19.2684 13.9559 19.0929 13.7804 18.8764 13.7804C18.6599 13.7804 18.4844 13.9559 18.4844 14.1724C18.4844 14.3889 18.6599 14.5644 18.8764 14.5644Z" fill="black"/>
<path d="M18.8764 15.3484C19.0929 15.3484 19.2684 15.1729 19.2684 14.9564C19.2684 14.7399 19.0929 14.5644 18.8764 14.5644C18.6599 14.5644 18.4844 14.7399 18.4844 14.9564C18.4844 15.1729 18.6599 15.3484 18.8764 15.3484Z" fill="black"/>
<path d="M18.8764 16.9164C19.0929 16.9164 19.2684 16.7409 19.2684 16.5244C19.2684 16.3079 19.0929 16.1324 18.8764 16.1324C18.6599 16.1324 18.4844 16.3079 18.4844 16.5244C18.4844 16.7409 18.6599 16.9164 18.8764 16.9164Z" fill="black"/>
<path d="M18.8764 19.2684C19.0929 19.2684 19.2684 19.0929 19.2684 18.8764C19.2684 18.6599 19.0929 18.4844 18.8764 18.4844C18.6599 18.4844 18.4844 18.6599 18.4844 18.8764C18.4844 19.0929 18.6599 19.2684 18.8764 19.2684Z" fill="black"/>
<path d="M18.8764 20.8364C19.0929 20.8364 19.2684 20.6609 19.2684 20.4444C19.2684 20.2279 19.0929 20.0524 18.8764 20.0524C18.6599 20.0524 18.4844 20.2279 18.4844 20.4444C18.4844 20.6609 18.6599 20.8364 18.8764 20.8364Z" fill="black"/>
<path d="M18.8764 22.4044C19.0929 22.4044 19.2684 22.2289 19.2684 22.0124C19.2684 21.7959 19.0929 21.6204 18.8764 21.6204C18.6599 21.6204 18.4844 21.7959 18.4844 22.0124C18.4844 22.2289 18.6599 22.4044 18.8764 22.4044Z" fill="black"/>
<path d="M18.8764 25.5404C19.0929 25.5404 19.2684 25.3649 19.2684 25.1484C19.2684 24.9319 19.0929 24.7564 18.8764 24.7564C18.6599 24.7564 18.4844 24.9319 18.4844 25.1484C18.4844 25.3649 18.6599 25.5404 18.8764 25.5404Z" fill="black"/>
<path d="M18.8764 27.1085C19.0929 27.1085 19.2684 26.933 19.2684 26.7165C19.2684 26.5 19.0929 26.3245 18.8764 26.3245C18.6599 26.3245 18.4844 26.5 18.4844 26.7165C18.4844 26.933 18.6599 27.1085 18.8764 27.1085Z" fill="black"/>
<path d="M18.8764 27.8925C19.0929 27.8925 19.2684 27.717 19.2684 27.5005C19.2684 27.284 19.0929 27.1085 18.8764 27.1085C18.6599 27.1085 18.4844 27.284 18.4844 27.5005C18.4844 27.717 18.6599 27.8925 18.8764 27.8925Z" fill="black"/>
<path d="M19.6604 2.80445C19.8769 2.80445 20.0524 2.62894 20.0524 2.41245C20.0524 2.19595 19.8769 2.02045 19.6604 2.02045C19.4439 2.02045 19.2684 2.19595 19.2684 2.41245C19.2684 2.62894 19.4439 2.80445 19.6604 2.80445Z" fill="black"/>
<path d="M19.6604 3.58844C19.8769 3.58844 20.0524 3.41294 20.0524 3.19644C20.0524 2.97995 19.8769 2.80444 19.6604 2.80444C19.4439 2.80444 19.2684 2.97995 19.2684 3.19644C19.2684 3.41294 19.4439 3.58844 19.6604 3.58844Z" fill="black"/>
<path d="M19.6604 4.37244C19.8769 4.37244 20.0524 4.19694 20.0524 3.98044C20.0524 3.76394 19.8769 3.58844 19.6604 3.58844C19.4439 3.58844 19.2684 3.76394 19.2684 3.98044C19.2684 4.19694 19.4439 4.37244 19.6604 4.37244Z" fill="black"/>
<path d="M19.6604 5.94043C19.8769 5.94043 20.0524 5.76493 20.0524 5.54843C20.0524 5.33194 19.8769 5.15643 19.6604 5.15643C19.4439 5.15643 19.2684 5.33194 19.2684 5.54843C19.2684 5.76493 19.4439 5.94043 19.6604 5.94043Z" fill="black"/>
<path d="M19.6604 7.50846C19.8769 7.50846 20.0524 7.33295 20.0524 7.11646C20.0524 6.89996 19.8769 6.72446 19.6604 6.72446C19.4439 6.72446 19.2684 6.89996 19.2684 7.11646C19.2684 7.33295 19.4439 7.50846 19.6604 7.50846Z" fill="black"/>
<path d="M19.6604 8.29245C19.8769 8.29245 20.0524 8.11695 20.0524 7.90045C20.0524 7.68396 19.8769 7.50845 19.6604 7.50845C19.4439 7.50845 19.2684 7.68396 19.2684 7.90045C19.2684 8.11695 19.4439 8.29245 19.6604 8.29245Z" fill="black"/>
<path d="M19.6604 9.07645C19.8769 9.07645 20.0524 8.90095 20.0524 8.68445C20.0524 8.46795 19.8769 8.29245 19.6604 8.29245C19.4439 8.29245 19.2684 8.46795 19.2684 8.68445C19.2684 8.90095 19.4439 9.07645 19.6604 9.07645Z" fill="black"/>
<path d="M19.6604 9.86045C19.8769 9.86045 20.0524 9.68494 20.0524 9.46845C20.0524 9.25195 19.8769 9.07645 19.6604 9.07645C19.4439 9.07645 19.2684 9.25195 19.2684 9.46845C19.2684 9.68494 19.4439 9.86045 19.6604 9.86045Z" fill="black"/>
<path d="M19.6604 10.6444C19.8769 10.6444 20.0524 10.4689 20.0524 10.2524C20.0524 10.0359 19.8769 9.86044 19.6604 9.86044C19.4439 9.86044 19.2684 10.0359 19.2684 10.2524C19.2684 10.4689 19.4439 10.6444 19.6604 10.6444Z" fill="black"/>
<path d="M19.6604 11.4284C19.8769 11.4284 20.0524 11.2529 20.0524 11.0364C20.0524 10.8199 19.8769 10.6444 19.6604 10.6444C19.4439 10.6444 19.2684 10.8199 19.2684 11.0364C19.2684 11.2529 19.4439 11.4284 19.6604 11.4284Z" fill="black"/>
<path d="M19.6604 13.7804C19.8769 13.7804 20.0524 13.6049 20.0524 13.3884C20.0524 13.1719 19.8769 12.9964 19.6604 12.9964C19.4439 12.9964 19.2684 13.1719 19.2684 13.3884C19.2684 13.6049 19.4439 13.7804 19.6604 13.7804Z" fill="black"/>
<path d="M19.6604 15.3484C19.8769 15.3484 20.0524 15.1729 20.0524 14.9564C20.0524 14.7399 19.8769 14.5644 19.6604 14.5644C19.4439 14.5644 19.2684 14.7399 19.2684 14.9564C19.2684 15.1729 19.4439 15.3484 19.6604 15.3484Z" fill="black"/>
<path d="M19.6604 16.9164C19.8769 16.9164 20.0524 16.7409 20.0524 16.5244C20.0524 16.3079 19.8769 16.1324 19.6604 16.1324C19.4439 16.1324 19.2684 16.3079 19.2684 16.5244C19.2684 16.7409 19.4439 16.9164 19.6604 16.9164Z" fill="black"/>
<path d="M19.6604 20.0524C19.8769 20.0524 20.0524 19.8769 20.0524 19.6604C20.0524 19.4439 19.8769 19.2684 19.6604 19.2684C19.4439 19.2684 19.2684 19.4439 19.2684 19.6604C19.2684 19.8769 19.4439 20.0524 19.6604 20.0524Z" fill="black"/>
<path d="M19.6604 22.4044C19.8769 22.4044 20.0524 22.2289 20.0524 22.0124C20.0524 21.7959 19.8769 21.6204 19.6604 21.6204C19.4439 21.6204 19.2684 21.7959 19.2684 22.0124C19.2684 22.2289 19.4439 22.4044 19.6604 22.4044Z" fill="black"/>
<path d="M19.6604 23.1884C19.8769 23.1884 20.0524 23.0129 20.0524 22.7964C20.0524 22.5799 19.8769 22.4044 19.6604 22.4044C19.4439 22.4044 19.2684 22.5799 19.2684 22.7964C19.2684 23.0129 19.4439 23.1884 19.6604 23.1884Z" fill="black"/>
<path d="M19.6604 24.7565C19.8769 24.7565 20.0524 24.581 20.0524 24.3645C20.0524 24.148 19.8769 23.9725 19.6604 23.9725C19.4439 23.9725 19.2684 24.148 19.2684 24.3645C19.2684 24.581 19.4439 24.7565 19.6604 24.7565Z" fill="black"/>
<path d="M19.6604 27.8925C19.8769 27.8925 20.0524 27.717 20.0524 27.5005C20.0524 27.284 19.8769 27.1085 19.6604 27.1085C19.4439 27.1085 19.2684 27.284 19.2684 27.5005C19.2684 27.717 19.4439 27.8925 19.6604 27.8925Z" fill="black"/>
<path d="M20.4444 3.58844C20.6609 3.58844 20.8364 3.41294 20.8364 3.19644C20.8364 2.97995 20.6609 2.80444 20.4444 2.80444C20.2279 2.80444 20.0524 2.97995 20.0524 3.19644C20.0524 3.41294 20.2279 3.58844 20.4444 3.58844Z" fill="black"/>
<path d="M20.4444 4.37244C20.6609 4.37244 20.8364 4.19694 20.8364 3.98044C20.8364 3.76394 20.6609 3.58844 20.4444 3.58844C20.2279 3.58844 20.0524 3.76394 20.0524 3.98044C20.0524 4.19694 20.2279 4.37244 20.4444 4.37244Z" fill="black"/>
<path d="M20.4444 5.94043C20.6609 5.94043 20.8364 5.76493 20.8364 5.54843C20.8364 5.33194 20.6609 5.15643 20.4444 5.15643C20.2279 5.15643 20.0524 5.33194 20.0524 5.54843C20.0524 5.76493 20.2279 5.94043 20.4444 5.94043Z" fill="black"/>
<path d="M20.4444 6.72446C20.6609 6.72446 20.8364 6.54896 20.8364 6.33246C20.8364 6.11596 20.6609 5.94046 20.4444 5.94046C20.2279 5.94046 20.0524 6.11596 20.0524 6.33246C20.0524 6.54896 20.2279 6.72446 20.4444 6.72446Z" fill="black"/>
<path d="M20.4444 9.07645C20.6609 9.07645 20.8364 8.90095 20.8364 8.68445C20.8364 8.46795 20.6609 8.29245 20.4444 8.29245C20.2279 8.29245 20.0524 8.46795 20.0524 8.68445C20.0524 8.90095 20.2279 9.07645 20.4444 9.07645Z" fill="black"/>
<path d="M20.4444 9.86045C20.6609 9.86045 20.8364 9.68494 20.8364 9.46845C20.8364 9.25195 20.6609 9.07645 20.4444 9.07645C20.2279 9.07645 20.0524 9.25195 20.0524 9.46845C20.0524 9.68494 20.2279 9.86045 20.4444 9.86045Z" fill="black"/>
<path d="M20.4444 10.6444C20.6609 10.6444 20.8364 10.4689 20.8364 10.2524C20.8364 10.0359 20.6609 9.86044 20.4444 9.86044C20.2279 9.86044 20.0524 10.0359 20.0524 10.2524C20.0524 10.4689 20.2279 10.6444 20.4444 10.6444Z" fill="black"/>
<path d="M20.4444 11.4284C20.6609 11.4284 20.8364 11.2529 20.8364 11.0364C20.8364 10.8199 20.6609 10.6444 20.4444 10.6444C20.2279 10.6444 20.0524 10.8199 20.0524 11.0364C20.0524 11.2529 20.2279 11.4284 20.4444 11.4284Z" fill="black"/>
<path d="M20.4444 12.2124C20.6609 12.2124 20.8364 12.0369 20.8364 11.8204C20.8364 11.6039 20.6609 11.4284 20.4444 11.4284C20.2279 11.4284 20.0524 11.6039 20.0524 11.8204C20.0524 12.0369 20.2279 12.2124 20.4444 12.2124Z" fill="black"/>
<path d="M20.4444 12.9964C20.6609 12.9964 20.8364 12.8209 20.8364 12.6044C20.8364 12.3879 20.6609 12.2124 20.4444 12.2124C20.2279 12.2124 20.0524 12.3879 20.0524 12.6044C20.0524 12.8209 20.2279 12.9964 20.4444 12.9964Z" fill="black"/>
<path d="M20.4444 16.9164C20.6609 16.9164 20.8364 16.7409 20.8364 16.5244C20.8364 16.3079 20.6609 16.1324 20.4444 16.1324C20.2279 16.1324 20.0524 16.3079 20.0524 16.5244C20.0524 16.7409 20.2279 16.9164 20.4444 16.9164Z" fill="black"/>
<path d="M20.4444 17.7004C20.6609 17.7004 20.8364 17.5249 20.8364 17.3084C20.8364 17.0919 20.6609 16.9164 20.4444 16.9164C20.2279 16.9164 20.0524 17.0919 20.0524 17.3084C20.0524 17.5249 20.2279 17.7004 20.4444 17.7004Z" fill="black"/>
<path d="M20.4444 18.4844C20.6609 18.4844 20.8364 18.3089 20.8364 18.0924C20.8364 17.8759 20.6609 17.7004 20.4444 17.7004C20.2279 17.7004 20.0524 17.8759 20.0524 18.0924C20.0524 18.3089 20.2279 18.4844 20.4444 18.4844Z" fill="black"/>
<path d="M20.4444 19.2684C20.6609 19.2684 20.8364 19.0929 20.8364 18.8764C20.8364 18.6599 20.6609 18.4844 20.4444 18.4844C20.2279 18.4844 20.0524 18.6599 20.0524 18.8764C20.0524 19.0929 20.2279 19.2684 20.4444 19.2684Z" fill="black"/>
<path d="M20.4444 22.4044C20.6609 22.4044 20.8364 22.2289 20.8364 22.0124C20.8364 21.7959 20.6609 21.6204 20.4444 21.6204C20.2279 21.6204 20.0524 21.7959 20.0524 22.0124C20.0524 22.2289 20.2279 22.4044 20.4444 22.4044Z" fill="black"/>
<path d="M20.4444 23.1884C20.6609 23.1884 20.8364 23.0129 20.8364 22.7964C20.8364 22.5799 20.6609 22.4044 20.4444 22.4044C20.2279 22.4044 20.0524 22.5799 20.0524 22.7964C20.0524 23.0129 20.2279 23.1884 20.4444 23.1884Z" fill="black"/>
<path d="M20.4444 24.7565C20.6609 24.7565 20.8364 24.581 20.8364 24.3645C20.8364 24.148 20.6609 23.9725 20.4444 23.9725C20.2279 23.9725 20.0524 24.148 20.0524 24.3645C20.0524 24.581 20.2279 24.7565 20.4444 24.7565Z" fill="black"/>
<path d="M20.4444 27.1085C20.6609 27.1085 20.8364 26.933 20.8364 26.7165C20.8364 26.5 20.6609 26.3245 20.4444 26.3245C20.2279 26.3245 20.0524 26.5 20.0524 26.7165C20.0524 26.933 20.2279 27.1085 20.4444 27.1085Z" fill="black"/>
<path d="M21.2284 2.80445C21.4449 2.80445 21.6204 2.62894 21.6204 2.41245C21.6204 2.19595 21.4449 2.02045 21.2284 2.02045C21.0119 2.02045 20.8364 2.19595 20.8364 2.41245C20.8364 2.62894 21.0119 2.80445 21.2284 2.80445Z" fill="black"/>
<path d="M21.2284 5.94043C21.4449 5.94043 21.6204 5.76493 21.6204 5.54843C21.6204 5.33194 21.4449 5.15643 21.2284 5.15643C21.0119 5.15643 20.8364 5.33194 20.8364 5.54843C20.8364 5.76493 21.0119 5.94043 21.2284 5.94043Z" fill="black"/>
<path d="M21.2284 6.72446C21.4449 6.72446 21.6204 6.54896 21.6204 6.33246C21.6204 6.11596 21.4449 5.94046 21.2284 5.94046C21.0119 5.94046 20.8364 6.11596 20.8364 6.33246C20.8364 6.54896 21.0119 6.72446 21.2284 6.72446Z" fill="black"/>
<path d="M21.2284 7.50846C21.4449 7.50846 21.6204 7.33295 21.6204 7.11646C21.6204 6.89996 21.4449 6.72446 21.2284 6.72446C21.0119 6.72446 20.8364 6.89996 20.8364 7.11646C20.8364 7.33295 21.0119 7.50846 21.2284 7.50846Z" fill="black"/>
<path d="M21.2284 8.29245C21.4449 8.29245 21.6204 8.11695 21.6204 7.90045C21.6204 7.68396 21.4449 7.50845 21.2284 7.50845C21.0119 7.50845 20.8364 7.68396 20.8364 7.90045C20.8364 8.11695 21.0119 8.29245 21.2284 8.29245Z" fill="black"/>
<path d="M21.2284 9.86045C21.4449 9.86045 21.6204 9.68494 21.6204 9.46845C21.6204 9.25195 21.4449 9.07645 21.2284 9.07645C21.0119 9.07645 20.8364 9.25195 20.8364 9.46845C20.8364 9.68494 21.0119 9.86045 21.2284 9.86045Z" fill="black"/>
<path d="M21.2284 11.4284C21.4449 11.4284 21.6204 11.2529 21.6204 11.0364C21.6204 10.8199 21.4449 10.6444 21.2284 10.6444C21.0119 10.6444 20.8364 10.8199 20.8364 11.0364C20.8364 11.2529 21.0119 11.4284 21.2284 11.4284Z" fill="black"/>
<path d="M21.2284 12.2124C21.4449 12.2124 21.6204 12.0369 21.6204 11.8204C21.6204 11.6039 21.4449 11.4284 21.2284 11.4284C21.0119 11.4284 20.8364 11.6039 20.8364 11.8204C20.8364 12.0369 21.0119 12.2124 21.2284 12.2124Z" fill="black"/>
<path d="M21.2284 12.9964C21.4449 12.9964 21.6204 12.8209 21.6204 12.6044C21.6204 12.3879 21.4449 12.2124 21.2284 12.2124C21.0119 12.2124 20.8364 12.3879 20.8364 12.6044C20.8364 12.8209 21.0119 12.9964 21.2284 12.9964Z" fill="black"/>
<path d="M21.2284 13.7804C21.4449 13.7804 21.6204 13.6049 21.6204 13.3884C21.6204 13.1719 21.4449 12.9964 21.2284 12.9964C21.0119 12.9964 20.8364 13.1719 20.8364 13.3884C20.8364 13.6049 21.0119 13.7804 21.2284 13.7804Z" fill="black"/>
<path d="M21.2284 18.4844C21.4449 18.4844 21.6204 18.3089 21.6204 18.0924C21.6204 17.8759 21.4449 17.7004 21.2284 17.7004C21.0119 17.7004 20.8364 17.8759 20.8364 18.0924C20.8364 18.3089 21.0119 18.4844 21.2284 18.4844Z" fill="black"/>
<path d="M21.2284 21.6204C21.4449 21.6204 21.6204 21.4449 21.6204 21.2284C21.6204 21.0119 21.4449 20.8364 21.2284 20.8364C21.0119 20.8364 20.8364 21.0119 20.8364 21.2284C20.8364 21.4449 21.0119 21.6204 21.2284 21.6204Z" fill="black"/>
<path d="M21.2284 22.4044C21.4449 22.4044 21.6204 22.2289 21.6204 22.0124C21.6204 21.7959 21.4449 21.6204 21.2284 21.6204C21.0119 21.6204 20.8364 21.7959 20.8364 22.0124C20.8364 22.2289 21.0119 22.4044 21.2284 22.4044Z" fill="black"/>
<path d="M21.2284 23.1884C21.4449 23.1884 21.6204 23.0129 21.6204 22.7964C21.6204 22.5799 21.4449 22.4044 21.2284 22.4044C21.0119 22.4044 20.8364 22.5799 20.8364 22.7964C20.8364 23.0129 21.0119 23.1884 21.2284 23.1884Z" fill="black"/>
<path d="M21.2284 23.9724C21.4449 23.9724 21.6204 23.7969 21.6204 23.5804C21.6204 23.3639 21.4449 23.1884 21.2284 23.1884C21.0119 23.1884 20.8364 23.3639 20.8364 23.5804C20.8364 23.7969 21.0119 23.9724 21.2284 23.9724Z" fill="black"/>
<path d="M21.2284 24.7565C21.4449 24.7565 21.6204 24.581 21.6204 24.3645C21.6204 24.148 21.4449 23.9725 21.2284 23.9725C21.0119 23.9725 20.8364 24.148 20.8364 24.3645C20.8364 24.581 21.0119 24.7565 21.2284 24.7565Z" fill="black"/>
<path d="M21.2284 27.1085C21.4449 27.1085 21.6204 26.933 21.6204 26.7165C21.6204 26.5 21.4449 26.3245 21.2284 26.3245C21.0119 26.3245 20.8364 26.5 20.8364 26.7165C20.8364 26.933 21.0119 27.1085 21.2284 27.1085Z" fill="black"/>
<path d="M22.0124 9.07645C22.2289 9.07645 22.4044 8.90095 22.4044 8.68445C22.4044 8.46795 22.2289 8.29245 22.0124 8.29245C21.7959 8.29245 21.6204 8.46795 21.6204 8.68445C21.6204 8.90095 21.7959 9.07645 22.0124 9.07645Z" fill="black"/>
<path d="M22.0124 9.86045C22.2289 9.86045 22.4044 9.68494 22.4044 9.46845C22.4044 9.25195 22.2289 9.07645 22.0124 9.07645C21.7959 9.07645 21.6204 9.25195 21.6204 9.46845C21.6204 9.68494 21.7959 9.86045 22.0124 9.86045Z" fill="black"/>
<path d="M22.0124 12.2124C22.2289 12.2124 22.4044 12.0369 22.4044 11.8204C22.4044 11.6039 22.2289 11.4284 22.0124 11.4284C21.7959 11.4284 21.6204 11.6039 21.6204 11.8204C21.6204 12.0369 21.7959 12.2124 22.0124 12.2124Z" fill="black"/>
<path d="M22.0124 16.1324C22.2289 16.1324 22.4044 15.9569 22.4044 15.7404C22.4044 15.5239 22.2289 15.3484 22.0124 15.3484C21.7959 15.3484 21.6204 15.5239 21.6204 15.7404C21.6204 15.9569 21.7959 16.1324 22.0124 16.1324Z" fill="black"/>
<path d="M22.0124 20.0524C22.2289 20.0524 22.4044 19.8769 22.4044 19.6604C22.4044 19.4439 22.2289 19.2684 22.0124 19.2684C21.7959 19.2684 21.6204 19.4439 21.6204 19.6604C21.6204 19.8769 21.7959 20.0524 22.0124 20.0524Z" fill="black"/>
<path d="M22.0124 21.6204C22.2289 21.6204 22.4044 21.4449 22.4044 21.2284C22.4044 21.0119 22.2289 20.8364 22.0124 20.8364C21.7959 20.8364 21.6204 21.0119 21.6204 21.2284C21.6204 21.4449 21.7959 21.6204 22.0124 21.6204Z" fill="black"/>
<path d="M22.0124 24.7565C22.2289 24.7565 22.4044 24.581 22.4044 24.3645C22.4044 24.148 22.2289 23.9725 22.0124 23.9725C21.7959 23.9725 21.6204 24.148 21.6204 24.3645C21.6204 24.581 21.7959 24.7565 22.0124 24.7565Z" fill="black"/>
<path d="M22.0124 26.3245C22.2289 26.3245 22.4044 26.149 22.4044 25.9325C22.4044 25.716 22.2289 25.5405 22.0124 25.5405C21.7959 25.5405 21.6204 25.716 21.6204 25.9325C21.6204 26.149 21.7959 26.3245 22.0124 26.3245Z" fill="black"/>
<path d="M22.0124 27.1085C22.2289 27.1085 22.4044 26.933 22.4044 26.7165C22.4044 26.5 22.2289 26.3245 22.0124 26.3245C21.7959 26.3245 21.6204 26.5 21.6204 26.7165C21.6204 26.933 21.7959 27.1085 22.0124 27.1085Z" fill="black"/>
<path d="M22.0124 27.8925C22.2289 27.8925 22.4044 27.717 22.4044 27.5005C22.4044 27.284 22.2289 27.1085 22.0124 27.1085C21.7959 27.1085 21.6204 27.284 21.6204 27.5005C21.6204 27.717 21.7959 27.8925 22.0124 27.8925Z" fill="black"/>
<path d="M22.7964 9.86045C23.0129 9.86045 23.1884 9.68494 23.1884 9.46845C23.1884 9.25195 23.0129 9.07645 22.7964 9.07645C22.5799 9.07645 22.4044 9.25195 22.4044 9.46845C22.4044 9.68494 22.5799 9.86045 22.7964 9.86045Z" fill="black"/>
<path d="M22.7964 10.6444C23.0129 10.6444 23.1884 10.4689 23.1884 10.2524C23.1884 10.0359 23.0129 9.86044 22.7964 9.86044C22.5799 9.86044 22.4044 10.0359 22.4044 10.2524C22.4044 10.4689 22.5799 10.6444 22.7964 10.6444Z" fill="black"/>
<path d="M22.7964 12.2124C23.0129 12.2124 23.1884 12.0369 23.1884 11.8204C23.1884 11.6039 23.0129 11.4284 22.7964 11.4284C22.5799 11.4284 22.4044 11.6039 22.4044 11.8204C22.4044 12.0369 22.5799 12.2124 22.7964 12.2124Z" fill="black"/>
<path d="M22.7964 14.5644C23.0129 14.5644 23.1884 14.3889 23.1884 14.1724C23.1884 13.9559 23.0129 13.7804 22.7964 13.7804C22.5799 13.7804 22.4044 13.9559 22.4044 14.1724C22.4044 14.3889 22.5799 14.5644 22.7964 14.5644Z" fill="black"/>
<path d="M22.7964 15.3484C23.0129 15.3484 23.1884 15.1729 23.1884 14.9564C23.1884 14.7399 23.0129 14.5644 22.7964 14.5644C22.5799 14.5644 22.4044 14.7399 22.4044 14.9564C22.4044 15.1729 22.5799 15.3484 22.7964 15.3484Z" fill="black"/>
<path d="M22.7964 16.1324C23.0129 16.1324 23.1884 15.9569 23.1884 15.7404C23.1884 15.5239 23.0129 15.3484 22.7964 15.3484C22.5799 15.3484 22.4044 15.5239 22.4044 15.7404C22.4044 15.9569 22.5799 16.1324 22.7964 16.1324Z" fill="black"/>
<path d="M22.7964 17.7004C23.0129 17.7004 23.1884 17.5249 23.1884 17.3084C23.1884 17.0919 23.0129 16.9164 22.7964 16.9164C22.5799 16.9164 22.4044 17.0919 22.4044 17.3084C22.4044 17.5249 22.5799 17.7004 22.7964 17.7004Z" fill="black"/>
<path d="M22.7964 18.4844C23.0129 18.4844 23.1884 18.3089 23.1884 18.0924C23.1884 17.8759 23.0129 17.7004 22.7964 17.7004C22.5799 17.7004 22.4044 17.8759 22.4044 18.0924C22.4044 18.3089 22.5799 18.4844 22.7964 18.4844Z" fill="black"/>
<path d="M22.7964 19.2684C23.0129 19.2684 23.1884 19.0929 23.1884 18.8764C23.1884 18.6599 23.0129 18.4844 22.7964 18.4844C22.5799 18.4844 22.4044 18.6599 22.4044 18.8764C22.4044 19.0929 22.5799 19.2684 22.7964 19.2684Z" fill="black"/>
<path d="M22.7964 21.6204C23.0129 21.6204 23.1884 21.4449 23.1884 21.2284C23.1884 21.0119 23.0129 20.8364 22.7964 20.8364C22.5799 20.8364 22.4044 21.0119 22.4044 21.2284C22.4044 21.4449 22.5799 21.6204 22.7964 21.6204Z" fill="black"/>
<path d="M22.7964 23.1884C23.0129 23.1884 23.1884 23.0129 23.1884 22.7964C23.1884 22.5799 23.0129 22.4044 22.7964 22.4044C22.5799 22.4044 22.4044 22.5799 22.4044 22.7964C22.4044 23.0129 22.5799 23.1884 22.7964 23.1884Z" fill="black"/>
<path d="M22.7964 24.7565C23.0129 24.7565 23.1884 24.581 23.1884 24.3645C23.1884 24.148 23.0129 23.9725 22.7964 23.9725C22.5799 23.9725 22.4044 24.148 22.4044 24.3645C22.4044 24.581 22.5799 24.7565 22.7964 24.7565Z" fill="black"/>
<path d="M22.7964 27.1085C23.0129 27.1085 23.1884 26.933 23.1884 26.7165C23.1884 26.5 23.0129 26.3245 22.7964 26.3245C22.5799 26.3245 22.4044 26.5 22.4044 26.7165C22.4044 26.933 22.5799 27.1085 22.7964 27.1085Z" fill="black"/>
<path d="M23.5804 12.2124C23.7969 12.2124 23.9724 12.0369 23.9724 11.8204C23.9724 11.6039 23.7969 11.4284 23.5804 11.4284C23.364 11.4284 23.1884 11.6039 23.1884 11.8204C23.1884 12.0369 23.364 12.2124 23.5804 12.2124Z" fill="black"/>
<path d="M23.5804 12.9964C23.7969 12.9964 23.9724 12.8209 23.9724 12.6044C23.9724 12.3879 23.7969 12.2124 23.5804 12.2124C23.364 12.2124 23.1884 12.3879 23.1884 12.6044C23.1884 12.8209 23.364 12.9964 23.5804 12.9964Z" fill="black"/>
<path d="M23.5804 14.5644C23.7969 14.5644 23.9724 14.3889 23.9724 14.1724C23.9724 13.9559 23.7969 13.7804 23.5804 13.7804C23.364 13.7804 23.1884 13.9559 23.1884 14.1724C23.1884 14.3889 23.364 14.5644 23.5804 14.5644Z" fill="black"/>
<path d="M23.5804 15.3484C23.7969 15.3484 23.9724 15.1729 23.9724 14.9564C23.9724 14.7399 23.7969 14.5644 23.5804 14.5644C23.364 14.5644 23.1884 14.7399 23.1884 14.9564C23.1884 15.1729 23.364 15.3484 23.5804 15.3484Z" fill="black"/>
<path d="M23.5804 17.7004C23.7969 17.7004 23.9724 17.5249 23.9724 17.3084C23.9724 17.0919 23.7969 16.9164 23.5804 16.9164C23.364 16.9164 23.1884 17.0919 23.1884 17.3084C23.1884 17.5249 23.364 17.7004 23.5804 17.7004Z" fill="black"/>
<path d="M23.5804 21.6204C23.7969 21.6204 23.9724 21.4449 23.9724 21.2284C23.9724 21.0119 23.7969 20.8364 23.5804 20.8364C23.364 20.8364 23.1884 21.0119 23.1884 21.2284C23.1884 21.4449 23.364 21.6204 23.5804 21.6204Z" fill="black"/>
<path d="M23.5804 24.7565C23.7969 24.7565 23.9724 24.581 23.9724 24.3645C23.9724 24.148 23.7969 23.9725 23.5804 23.9725C23.364 23.9725 23.1884 24.148 23.1884 24.3645C23.1884 24.581 23.364 24.7565 23.5804 24.7565Z" fill="black"/>
<path d="M23.5804 27.8925C23.7969 27.8925 23.9724 27.717 23.9724 27.5005C23.9724 27.284 23.7969 27.1085 23.5804 27.1085C23.364 27.1085 23.1884 27.284 23.1884 27.5005C23.1884 27.717 23.364 27.8925 23.5804 27.8925Z" fill="black"/>
<path d="M24.3644 11.4284C24.5809 11.4284 24.7564 11.2529 24.7564 11.0364C24.7564 10.8199 24.5809 10.6444 24.3644 10.6444C24.1479 10.6444 23.9724 10.8199 23.9724 11.0364C23.9724 11.2529 24.1479 11.4284 24.3644 11.4284Z" fill="black"/>
<path d="M24.3644 12.2124C24.5809 12.2124 24.7564 12.0369 24.7564 11.8204C24.7564 11.6039 24.5809 11.4284 24.3644 11.4284C24.1479 11.4284 23.9724 11.6039 23.9724 11.8204C23.9724 12.0369 24.1479 12.2124 24.3644 12.2124Z" fill="black"/>
<path d="M24.3644 13.7804C24.5809 13.7804 24.7564 13.6049 24.7564 13.3884C24.7564 13.1719 24.5809 12.9964 24.3644 12.9964C24.1479 12.9964 23.9724 13.1719 23.9724 13.3884C23.9724 13.6049 24.1479 13.7804 24.3644 13.7804Z" fill="black"/>
<path d="M24.3644 16.1324C24.5809 16.1324 24.7564 15.9569 24.7564 15.7404C24.7564 15.5239 24.5809 15.3484 24.3644 15.3484C24.1479 15.3484 23.9724 15.5239 23.9724 15.7404C23.9724 15.9569 24.1479 16.1324 24.3644 16.1324Z" fill="black"/>
<path d="M24.3644 16.9164C24.5809 16.9164 24.7564 16.7409 24.7564 16.5244C24.7564 16.3079 24.5809 16.1324 24.3644 16.1324C24.1479 16.1324 23.9724 16.3079 23.9724 16.5244C23.9724 16.7409 24.1479 16.9164 24.3644 16.9164Z" fill="black"/>
<path d="M24.3644 17.7004C24.5809 17.7004 24.7564 17.5249 24.7564 17.3084C24.7564 17.0919 24.5809 16.9164 24.3644 16.9164C24.1479 16.9164 23.9724 17.0919 23.9724 17.3084C23.9724 17.5249 24.1479 17.7004 24.3644 17.7004Z" fill="black"/>
<path d="M24.3644 18.4844C24.5809 18.4844 24.7564 18.3089 24.7564 18.0924C24.7564 17.8759 24.5809 17.7004 24.3644 17.7004C24.1479 17.7004 23.9724 17.8759 23.9724 18.0924C23.9724 18.3089 24.1479 18.4844 24.3644 18.4844Z" fill="black"/>
<path d="M24.3644 20.0524C24.5809 20.0524 24.7564 19.8769 24.7564 19.6604C24.7564 19.4439 24.5809 19.2684 24.3644 19.2684C24.1479 19.2684 23.9724 19.4439 23.9724 19.6604C23.9724 19.8769 24.1479 20.0524 24.3644 20.0524Z" fill="black"/>
<path d="M24.3644 21.6204C24.5809 21.6204 24.7564 21.4449 24.7564 21.2284C24.7564 21.0119 24.5809 20.8364 24.3644 20.8364C24.1479 20.8364 23.9724 21.0119 23.9724 21.2284C23.9724 21.4449 24.1479 21.6204 24.3644 21.6204Z" fill="black"/>
<path d="M24.3644 22.4044C24.5809 22.4044 24.7564 22.2289 24.7564 22.0124C24.7564 21.7959 24.5809 21.6204 24.3644 21.6204C24.1479 21.6204 23.9724 21.7959 23.9724 22.0124C23.9724 22.2289 24.1479 22.4044 24.3644 22.4044Z" fill="black"/>
<path d="M24.3644 23.1884C24.5809 23.1884 24.7564 23.0129 24.7564 22.7964C24.7564 22.5799 24.5809 22.4044 24.3644 22.4044C24.1479 22.4044 23.9724 22.5799 23.9724 22.7964C23.9724 23.0129 24.1479 23.1884 24.3644 23.1884Z" fill="black"/>
<path d="M24.3644 23.9724C24.5809 23.9724 24.7564 23.7969 24.7564 23.5804C24.7564 23.3639 24.5809 23.1884 24.3644 23.1884C24.1479 23.1884 23.9724 23.3639 23.9724 23.5804C23.9724 23.7969 24.1479 23.9724 24.3644 23.9724Z" fill="black"/>
<path d="M24.3644 24.7565C24.5809 24.7565 24.7564 24.581 24.7564 24.3645C24.7564 24.148 24.5809 23.9725 24.3644 23.9725C24.1479 23.9725 23.9724 24.148 23.9724 24.3645C23.9724 24.581 24.1479 24.7565 24.3644 24.7565Z" fill="black"/>
<path d="M25.1484 9.07645C25.3649 9.07645 25.5404 8.90095 25.5404 8.68445C25.5404 8.46795 25.3649 8.29245 25.1484 8.29245C24.9319 8.29245 24.7564 8.46795 24.7564 8.68445C24.7564 8.90095 24.9319 9.07645 25.1484 9.07645Z" fill="black"/>
<path d="M25.1484 10.6444C25.3649 10.6444 25.5404 10.4689 25.5404 10.2524C25.5404 10.0359 25.3649 9.86044 25.1484 9.86044C24.9319 9.86044 24.7564 10.0359 24.7564 10.2524C24.7564 10.4689 24.9319 10.6444 25.1484 10.6444Z" fill="black"/>
<path d="M25.1484 11.4284C25.3649 11.4284 25.5404 11.2529 25.5404 11.0364C25.5404 10.8199 25.3649 10.6444 25.1484 10.6444C24.9319 10.6444 24.7564 10.8199 24.7564 11.0364C24.7564 11.2529 24.9319 11.4284 25.1484 11.4284Z" fill="black"/>
<path d="M25.1484 12.2124C25.3649 12.2124 25.5404 12.0369 25.5404 11.8204C25.5404 11.6039 25.3649 11.4284 25.1484 11.4284C24.9319 11.4284 24.7564 11.6039 24.7564 11.8204C24.7564 12.0369 24.9319 12.2124 25.1484 12.2124Z" fill="black"/>
<path d="M25.1484 13.7804C25.3649 13.7804 25.5404 13.6049 25.5404 13.3884C25.5404 13.1719 25.3649 12.9964 25.1484 12.9964C24.9319 12.9964 24.7564 13.1719 24.7564 13.3884C24.7564 13.6049 24.9319 13.7804 25.1484 13.7804Z" fill="black"/>
<path d="M25.1484 15.3484C25.3649 15.3484 25.5404 15.1729 25.5404 14.9564C25.5404 14.7399 25.3649 14.5644 25.1484 14.5644C24.9319 14.5644 24.7564 14.7399 24.7564 14.9564C24.7564 15.1729 24.9319 15.3484 25.1484 15.3484Z" fill="black"/>
<path d="M25.1484 16.1324C25.3649 16.1324 25.5404 15.9569 25.5404 15.7404C25.5404 15.5239 25.3649 15.3484 25.1484 15.3484C24.9319 15.3484 24.7564 15.5239 24.7564 15.7404C24.7564 15.9569 24.9319 16.1324 25.1484 16.1324Z" fill="black"/>
<path d="M25.1484 16.9164C25.3649 16.9164 25.5404 16.7409 25.5404 16.5244C25.5404 16.3079 25.3649 16.1324 25.1484 16.1324C24.9319 16.1324 24.7564 16.3079 24.7564 16.5244C24.7564 16.7409 24.9319 16.9164 25.1484 16.9164Z" fill="black"/>
<path d="M25.1484 17.7004C25.3649 17.7004 25.5404 17.5249 25.5404 17.3084C25.5404 17.0919 25.3649 16.9164 25.1484 16.9164C24.9319 16.9164 24.7564 17.0919 24.7564 17.3084C24.7564 17.5249 24.9319 17.7004 25.1484 17.7004Z" fill="black"/>
<path d="M25.1484 23.1884C25.3649 23.1884 25.5404 23.0129 25.5404 22.7964C25.5404 22.5799 25.3649 22.4044 25.1484 22.4044C24.9319 22.4044 24.7564 22.5799 24.7564 22.7964C24.7564 23.0129 24.9319 23.1884 25.1484 23.1884Z" fill="black"/>
<path d="M25.1484 24.7565C25.3649 24.7565 25.5404 24.581 25.5404 24.3645C25.5404 24.148 25.3649 23.9725 25.1484 23.9725C24.9319 23.9725 24.7564 24.148 24.7564 24.3645C24.7564 24.581 24.9319 24.7565 25.1484 24.7565Z" fill="black"/>
<path d="M25.1484 26.3245C25.3649 26.3245 25.5404 26.149 25.5404 25.9325C25.5404 25.716 25.3649 25.5405 25.1484 25.5405C24.9319 25.5405 24.7564 25.716 24.7564 25.9325C24.7564 26.149 24.9319 26.3245 25.1484 26.3245Z" fill="black"/>
<path d="M25.1484 27.8925C25.3649 27.8925 25.5404 27.717 25.5404 27.5005C25.5404 27.284 25.3649 27.1085 25.1484 27.1085C24.9319 27.1085 24.7564 27.284 24.7564 27.5005C24.7564 27.717 24.9319 27.8925 25.1484 27.8925Z" fill="black"/>
<path d="M25.9324 12.9964C26.1489 12.9964 26.3244 12.8209 26.3244 12.6044C26.3244 12.3879 26.1489 12.2124 25.9324 12.2124C25.7159 12.2124 25.5404 12.3879 25.5404 12.6044C25.5404 12.8209 25.7159 12.9964 25.9324 12.9964Z" fill="black"/>
<path d="M25.9324 13.7804C26.1489 13.7804 26.3244 13.6049 26.3244 13.3884C26.3244 13.1719 26.1489 12.9964 25.9324 12.9964C25.7159 12.9964 25.5404 13.1719 25.5404 13.3884C25.5404 13.6049 25.7159 13.7804 25.9324 13.7804Z" fill="black"/>
<path d="M25.9324 14.5644C26.1489 14.5644 26.3244 14.3889 26.3244 14.1724C26.3244 13.9559 26.1489 13.7804 25.9324 13.7804C25.7159 13.7804 25.5404 13.9559 25.5404 14.1724C25.5404 14.3889 25.7159 14.5644 25.9324 14.5644Z" fill="black"/>
<path d="M25.9324 15.3484C26.1489 15.3484 26.3244 15.1729 26.3244 14.9564C26.3244 14.7399 26.1489 14.5644 25.9324 14.5644C25.7159 14.5644 25.5404 14.7399 25.5404 14.9564C25.5404 15.1729 25.7159 15.3484 25.9324 15.3484Z" fill="black"/>
<path d="M25.9324 16.9164C26.1489 16.9164 26.3244 16.7409 26.3244 16.5244C26.3244 16.3079 26.1489 16.1324 25.9324 16.1324C25.7159 16.1324 25.5404 16.3079 25.5404 16.5244C25.5404 16.7409 25.7159 16.9164 25.9324 16.9164Z" fill="black"/>
<path d="M25.9324 19.2684C26.1489 19.2684 26.3244 19.0929 26.3244 18.8764C26.3244 18.6599 26.1489 18.4844 25.9324 18.4844C25.7159 18.4844 25.5404 18.6599 25.5404 18.8764C25.5404 19.0929 25.7159 19.2684 25.9324 19.2684Z" fill="black"/>
<path d="M25.9324 20.0524C26.1489 20.0524 26.3244 19.8769 26.3244 19.6604C26.3244 19.4439 26.1489 19.2684 25.9324 19.2684C25.7159 19.2684 25.5404 19.4439 25.5404 19.6604C25.5404 19.8769 25.7159 20.0524 25.9324 20.0524Z" fill="black"/>
<path d="M25.9324 22.4044C26.1489 22.4044 26.3244 22.2289 26.3244 22.0124C26.3244 21.7959 26.1489 21.6204 25.9324 21.6204C25.7159 21.6204 25.5404 21.7959 25.5404 22.0124C25.5404 22.2289 25.7159 22.4044 25.9324 22.4044Z" fill="black"/>
<path d="M25.9324 23.9724C26.1489 23.9724 26.3244 23.7969 26.3244 23.5804C26.3244 23.3639 26.1489 23.1884 25.9324 23.1884C25.7159 23.1884 25.5404 23.3639 25.5404 23.5804C25.5404 23.7969 25.7159 23.9724 25.9324 23.9724Z" fill="black"/>
<path d="M25.9324 24.7565C26.1489 24.7565 26.3244 24.581 26.3244 24.3645C26.3244 24.148 26.1489 23.9725 25.9324 23.9725C25.7159 23.9725 25.5404 24.148 25.5404 24.3645C25.5404 24.581 25.7159 24.7565 25.9324 24.7565Z" fill="black"/>
<path d="M25.9324 26.3245C26.1489 26.3245 26.3244 26.149 26.3244 25.9325C26.3244 25.716 26.1489 25.5405 25.9324 25.5405C25.7159 25.5405 25.5404 25.716 25.5404 25.9325C25.5404 26.149 25.7159 26.3245 25.9324 26.3245Z" fill="black"/>
<path d="M25.9324 27.8925C26.1489 27.8925 26.3244 27.717 26.3244 27.5005C26.3244 27.284 26.1489 27.1085 25.9324 27.1085C25.7159 27.1085 25.5404 27.284 25.5404 27.5005C25.5404 27.717 25.7159 27.8925 25.9324 27.8925Z" fill="black"/>
<path d="M26.7164 9.86045C26.9329 9.86045 27.1084 9.68494 27.1084 9.46845C27.1084 9.25195 26.9329 9.07645 26.7164 9.07645C26.4999 9.07645 26.3244 9.25195 26.3244 9.46845C26.3244 9.68494 26.4999 9.86045 26.7164 9.86045Z" fill="black"/>
<path d="M26.7164 10.6444C26.9329 10.6444 27.1084 10.4689 27.1084 10.2524C27.1084 10.0359 26.9329 9.86044 26.7164 9.86044C26.4999 9.86044 26.3244 10.0359 26.3244 10.2524C26.3244 10.4689 26.4999 10.6444 26.7164 10.6444Z" fill="black"/>
<path d="M26.7164 12.2124C26.9329 12.2124 27.1084 12.0369 27.1084 11.8204C27.1084 11.6039 26.9329 11.4284 26.7164 11.4284C26.4999 11.4284 26.3244 11.6039 26.3244 11.8204C26.3244 12.0369 26.4999 12.2124 26.7164 12.2124Z" fill="black"/>
<path d="M26.7164 14.5644C26.9329 14.5644 27.1084 14.3889 27.1084 14.1724C27.1084 13.9559 26.9329 13.7804 26.7164 13.7804C26.4999 13.7804 26.3244 13.9559 26.3244 14.1724C26.3244 14.3889 26.4999 14.5644 26.7164 14.5644Z" fill="black"/>
<path d="M26.7164 16.1324C26.9329 16.1324 27.1084 15.9569 27.1084 15.7404C27.1084 15.5239 26.9329 15.3484 26.7164 15.3484C26.4999 15.3484 26.3244 15.5239 26.3244 15.7404C26.3244 15.9569 26.4999 16.1324 26.7164 16.1324Z" fill="black"/>
<path d="M26.7164 16.9164C26.9329 16.9164 27.1084 16.7409 27.1084 16.5244C27.1084 16.3079 26.9329 16.1324 26.7164 16.1324C26.4999 16.1324 26.3244 16.3079 26.3244 16.5244C26.3244 16.7409 26.4999 16.9164 26.7164 16.9164Z" fill="black"/>
<path d="M26.7164 17.7004C26.9329 17.7004 27.1084 17.5249 27.1084 17.3084C27.1084 17.0919 26.9329 16.9164 26.7164 16.9164C26.4999 16.9164 26.3244 17.0919 26.3244 17.3084C26.3244 17.5249 26.4999 17.7004 26.7164 17.7004Z" fill="black"/>
<path d="M26.7164 20.0524C26.9329 20.0524 27.1084 19.8769 27.1084 19.6604C27.1084 19.4439 26.9329 19.2684 26.7164 19.2684C26.4999 19.2684 26.3244 19.4439 26.3244 19.6604C26.3244 19.8769 26.4999 20.0524 26.7164 20.0524Z" fill="black"/>
<path d="M26.7164 20.8364C26.9329 20.8364 27.1084 20.6609 27.1084 20.4444C27.1084 20.2279 26.9329 20.0524 26.7164 20.0524C26.4999 20.0524 26.3244 20.2279 26.3244 20.4444C26.3244 20.6609 26.4999 20.8364 26.7164 20.8364Z" fill="black"/>
<path d="M26.7164 21.6204C26.9329 21.6204 27.1084 21.4449 27.1084 21.2284C27.1084 21.0119 26.9329 20.8364 26.7164 20.8364C26.4999 20.8364 26.3244 21.0119 26.3244 21.2284C26.3244 21.4449 26.4999 21.6204 26.7164 21.6204Z" fill="black"/>
<path d="M26.7164 22.4044C26.9329 22.4044 27.1084 22.2289 27.1084 22.0124C27.1084 21.7959 26.9329 21.6204 26.7164 21.6204C26.4999 21.6204 26.3244 21.7959 26.3244 22.0124C26.3244 22.2289 26.4999 22.4044 26.7164 22.4044Z" fill="black"/>
<path d="M26.7164 23.9724C26.9329 23.9724 27.1084 23.7969 27.1084 23.5804C27.1084 23.3639 26.9329 23.1884 26.7164 23.1884C26.4999 23.1884 26.3244 23.3639 26.3244 23.5804C26.3244 23.7969 26.4999 23.9724 26.7164 23.9724Z" fill="black"/>
<path d="M26.7164 24.7565C26.9329 24.7565 27.1084 24.581 27.1084 24.3645C27.1084 24.148 26.9329 23.9725 26.7164 23.9725C26.4999 23.9725 26.3244 24.148 26.3244 24.3645C26.3244 24.581 26.4999 24.7565 26.7164 24.7565Z" fill="black"/>
<path d="M27.5004 10.6444C27.7169 10.6444 27.8924 10.4689 27.8924 10.2524C27.8924 10.0359 27.7169 9.86044 27.5004 9.86044C27.2839 9.86044 27.1084 10.0359 27.1084 10.2524C27.1084 10.4689 27.2839 10.6444 27.5004 10.6444Z" fill="black"/>
<path d="M27.5004 12.2124C27.7169 12.2124 27.8924 12.0369 27.8924 11.8204C27.8924 11.6039 27.7169 11.4284 27.5004 11.4284C27.2839 11.4284 27.1084 11.6039 27.1084 11.8204C27.1084 12.0369 27.2839 12.2124 27.5004 12.2124Z" fill="black"/>
<path d="M27.5004 16.1324C27.7169 16.1324 27.8924 15.9569 27.8924 15.7404C27.8924 15.5239 27.7169 15.3484 27.5004 15.3484C27.2839 15.3484 27.1084 15.5239 27.1084 15.7404C27.1084 15.9569 27.2839 16.1324 27.5004 16.1324Z" fill="black"/>
<path d="M27.5004 16.9164C27.7169 16.9164 27.8924 16.7409 27.8924 16.5244C27.8924 16.3079 27.7169 16.1324 27.5004 16.1324C27.2839 16.1324 27.1084 16.3079 27.1084 16.5244C27.1084 16.7409 27.2839 16.9164 27.5004 16.9164Z" fill="black"/>
<path d="M27.5004 18.4844C27.7169 18.4844 27.8924 18.3089 27.8924 18.0924C27.8924 17.8759 27.7169 17.7004 27.5004 17.7004C27.2839 17.7004 27.1084 17.8759 27.1084 18.0924C27.1084 18.3089 27.2839 18.4844 27.5004 18.4844Z" fill="black"/>
<path d="M27.5004 20.8364C27.7169 20.8364 27.8924 20.6609 27.8924 20.4444C27.8924 20.2279 27.7169 20.0524 27.5004 20.0524C27.2839 20.0524 27.1084 20.2279 27.1084 20.4444C27.1084 20.6609 27.2839 20.8364 27.5004 20.8364Z" fill="black"/>
<path d="M27.5004 21.6204C27.7169 21.6204 27.8924 21.4449 27.8924 21.2284C27.8924 21.0119 27.7169 20.8364 27.5004 20.8364C27.2839 20.8364 27.1084 21.0119 27.1084 21.2284C27.1084 21.4449 27.2839 21.6204 27.5004 21.6204Z" fill="black"/>
<path d="M27.5004 22.4044C27.7169 22.4044 27.8924 22.2289 27.8924 22.0124C27.8924 21.7959 27.7169 21.6204 27.5004 21.6204C27.2839 21.6204 27.1084 21.7959 27.1084 22.0124C27.1084 22.2289 27.2839 22.4044 27.5004 22.4044Z" fill="black"/>
<path d="M27.5004 23.9724C27.7169 23.9724 27.8924 23.7969 27.8924 23.5804C27.8924 23.3639 27.7169 23.1884 27.5004 23.1884C27.2839 23.1884 27.1084 23.3639 27.1084 23.5804C27.1084 23.7969 27.2839 23.9724 27.5004 23.9724Z" fill="black"/>
<path d="M27.5004 24.7565C27.7169 24.7565 27.8924 24.581 27.8924 24.3645C27.8924 24.148 27.7169 23.9725 27.5004 23.9725C27.2839 23.9725 27.1084 24.148 27.1084 24.3645C27.1084 24.581 27.2839 24.7565 27.5004 24.7565Z" fill="black"/>
<path d="M27.5004 25.5404C27.7169 25.5404 27.8924 25.3649 27.8924 25.1484C27.8924 24.9319 27.7169 24.7564 27.5004 24.7564C27.2839 24.7564 27.1084 24.9319 27.1084 25.1484C27.1084 25.3649 27.2839 25.5404 27.5004 25.5404Z" fill="black"/>
<path d="M27.5004 27.1085C27.7169 27.1085 27.8924 26.933 27.8924 26.7165C27.8924 26.5 27.7169 26.3245 27.5004 26.3245C27.2839 26.3245 27.1084 26.5 27.1084 26.7165C27.1084 26.933 27.2839 27.1085 27.5004 27.1085Z" fill="black"/>
<path d="M2.02045 2.80445V6.72445C2.02045 6.93238 2.10305 7.13179 2.25008 7.27882C2.3971 7.42585 2.59652 7.50845 2.80445 7.50845H6.72445C6.93238 7.50845 7.13179 7.42585 7.27882 7.27882C7.42585 7.13179 7.50845 6.93238 7.50845 6.72445V2.80445C7.50845 2.59652 7.42585 2.3971 7.27882 2.25008C7.13179 2.10305 6.93238 2.02045 6.72445 2.02045H2.80445C2.59652 2.02045 2.3971 2.10305 2.25008 2.25008C2.10305 2.3971 2.02045 2.59652 2.02045 2.80445ZM3.19645 2.80445H6.33245C6.43641 2.80445 6.53612 2.84575 6.60963 2.91926C6.68315 2.99278 6.72445 3.09248 6.72445 3.19645V6.33245C6.72445 6.43641 6.68315 6.53612 6.60963 6.60963C6.53612 6.68315 6.43641 6.72445 6.33245 6.72445H3.19645C3.09248 6.72445 2.99278 6.68315 2.91926 6.60963C2.84575 6.53612 2.80445 6.43641 2.80445 6.33245V3.19645C2.80445 3.09248 2.84575 2.99278 2.91926 2.91926C2.99278 2.84575 3.09248 2.80445 3.19645 2.80445Z" fill="black"/>
<path d="M5.35247 3.58847H4.17647C3.85173 3.58847 3.58847 3.85173 3.58847 4.17647V5.35247C3.58847 5.67721 3.85173 5.94047 4.17647 5.94047H5.35247C5.67721 5.94047 5.94047 5.67721 5.94047 5.35247V4.17647C5.94047 3.85173 5.67721 3.58847 5.35247 3.58847Z" fill="black"/>
<path d="M27.1085 2.02045L23.1885 2.02045C22.9805 2.02045 22.7811 2.10305 22.6341 2.25007C22.4871 2.3971 22.4045 2.59652 22.4045 2.80445V6.72445C22.4045 6.93238 22.4871 7.13179 22.6341 7.27882C22.7811 7.42585 22.9805 7.50845 23.1885 7.50845H27.1085C27.3164 7.50845 27.5158 7.42585 27.6628 7.27882C27.8099 7.13179 27.8925 6.93238 27.8925 6.72445V2.80445C27.8925 2.59652 27.8099 2.3971 27.6628 2.25007C27.5158 2.10305 27.3164 2.02045 27.1085 2.02045ZM27.1085 3.19645V6.33245C27.1085 6.43641 27.0672 6.53612 26.9936 6.60963C26.9201 6.68315 26.8204 6.72445 26.7165 6.72445H23.5805C23.4765 6.72445 23.3768 6.68315 23.3033 6.60963C23.2298 6.53612 23.1885 6.43641 23.1885 6.33245V3.19645C23.1885 3.09248 23.2298 2.99278 23.3033 2.91926C23.3768 2.84575 23.4765 2.80445 23.5805 2.80445H26.7165C26.8204 2.80445 26.9201 2.84575 26.9936 2.91926C27.0672 2.99278 27.1085 3.09248 27.1085 3.19645Z" fill="black"/>
<path d="M26.3245 5.35247V4.17647C26.3245 3.85173 26.0612 3.58847 25.7365 3.58847H24.5605C24.2357 3.58847 23.9725 3.85173 23.9725 4.17647V5.35247C23.9725 5.67721 24.2357 5.94047 24.5605 5.94047H25.7365C26.0612 5.94047 26.3245 5.67721 26.3245 5.35247Z" fill="black"/>
<path d="M2.80445 27.8925H6.72445C6.93238 27.8925 7.13179 27.8099 7.27882 27.6628C7.42585 27.5158 7.50845 27.3164 7.50845 27.1085V23.1885C7.50845 22.9805 7.42585 22.7811 7.27882 22.6341C7.13179 22.4871 6.93238 22.4045 6.72445 22.4045H2.80445C2.59652 22.4045 2.3971 22.4871 2.25007 22.6341C2.10305 22.7811 2.02045 22.9805 2.02045 23.1885L2.02045 27.1085C2.02045 27.3164 2.10305 27.5158 2.25007 27.6628C2.3971 27.8099 2.59652 27.8925 2.80445 27.8925ZM2.80445 26.7165V23.5805C2.80445 23.4765 2.84575 23.3768 2.91926 23.3033C2.99278 23.2298 3.09248 23.1885 3.19645 23.1885H6.33245C6.43641 23.1885 6.53612 23.2298 6.60963 23.3033C6.68315 23.3768 6.72445 23.4765 6.72445 23.5805V26.7165C6.72445 26.8204 6.68315 26.9201 6.60963 26.9936C6.53612 27.0672 6.43641 27.1085 6.33245 27.1085H3.19645C3.09248 27.1085 2.99278 27.0672 2.91926 26.9936C2.84575 26.9201 2.80445 26.8204 2.80445 26.7165Z" fill="black"/>
<path d="M3.58847 24.5605V25.7365C3.58847 26.0612 3.85173 26.3245 4.17647 26.3245H5.35247C5.67721 26.3245 5.94047 26.0612 5.94047 25.7365V24.5605C5.94047 24.2357 5.67721 23.9725 5.35247 23.9725H4.17647C3.85173 23.9725 3.58847 24.2357 3.58847 24.5605Z" fill="black"/>
<g clip-path="url(#clip0_36_1363)">
<path fill-rule="evenodd" clip-rule="evenodd" d="M15 12.2C13.453 12.2 12.2 13.453 12.2 15C12.2 16.239 13.0015 17.2855 14.1145 17.6565C14.2545 17.681 14.307 17.597 14.307 17.5235C14.307 17.457 14.3035 17.2365 14.3035 17.002C13.6 17.1315 13.418 16.8305 13.362 16.673C13.3305 16.5925 13.194 16.344 13.075 16.2775C12.977 16.225 12.837 16.0955 13.0715 16.092C13.292 16.0885 13.4495 16.295 13.502 16.379C13.754 16.8025 14.1565 16.6835 14.3175 16.61C14.342 16.428 14.4155 16.3055 14.496 16.2355C13.873 16.1655 13.222 15.924 13.222 14.853C13.222 14.5485 13.3305 14.2965 13.509 14.1005C13.481 14.0305 13.383 13.7435 13.537 13.3585C13.537 13.3585 13.7715 13.285 14.307 13.6455C14.531 13.5825 14.769 13.551 15.007 13.551C15.245 13.551 15.483 13.5825 15.707 13.6455C16.2425 13.2815 16.477 13.3585 16.477 13.3585C16.631 13.7435 16.533 14.0305 16.505 14.1005C16.6835 14.2965 16.792 14.545 16.792 14.853C16.792 15.9275 16.1375 16.1655 15.5145 16.2355C15.616 16.323 15.7035 16.491 15.7035 16.7535C15.7035 17.128 15.7 17.429 15.7 17.5235C15.7 17.597 15.7525 17.6845 15.8925 17.6565C16.9985 17.2855 17.8 16.2355 17.8 15C17.8 13.453 16.547 12.2 15 12.2Z" fill="black"/>
</g>
<defs>
<clipPath id="clip0_36_1363">
<rect width="5.6" height="5.6" fill="white" transform="translate(12.2 12.2)"/>
</clipPath>
</defs>
</svg>
